<?xml version="1.0" standalone="no"?>
<!DOCTYPE svg PUBLIC "-//W3C//DTD SVG 1.1//EN" "http://www.w3.org/Graphics/SVG/1.1/DTD/svg11.dtd" >
<svg xmlns="http://www.w3.org/2000/svg">
<metadata>
This is a custom SVG webfont generated by Font Squirrel.
Copyright   : Copyright C 2010 Maniackers Design  Masayuki sato All Rights Reserved  wwwmksdjp 20101216update
</metadata>
<defs>
<font id="232MKSDRoundBold" horiz-adv-x="1210" >
<font-face units-per-em="2048" ascent="1638" descent="-410" />
<missing-glyph horiz-adv-x="614" />
<glyph unicode=" "  horiz-adv-x="614" />
<glyph unicode="&#x09;" horiz-adv-x="614" />
<glyph unicode="&#xa0;" horiz-adv-x="614" />
<glyph unicode="!" horiz-adv-x="595" d="M127 172q0 70 50 120t122 50q70 0 120 -50t50 -120q0 -72 -50 -121t-120 -49q-72 0 -122 49t-50 121zM147 590v852q0 63 44.5 106t107.5 43q61 0 105.5 -43t44.5 -106v-852q0 -61 -44.5 -105.5t-105.5 -44.5q-63 0 -107.5 44.5t-44.5 105.5z" />
<glyph unicode="&#x22;" horiz-adv-x="931" d="M137 1294v148q0 63 44 106t106 43q63 0 106 -43t43 -106v-148q0 -61 -43 -105t-106 -44q-61 0 -105.5 44t-44.5 105zM496 1294v148q0 63 43 106t106 43q61 0 105.5 -43t44.5 -106v-148q0 -61 -44 -105t-106 -44q-63 0 -106 44t-43 105z" />
<glyph unicode="#" horiz-adv-x="1284" d="M139 602.5q0 61.5 43 105.5t105 44q10 2 10 12v65q0 10 -10 11q-61 2 -104.5 45t-43.5 104.5t43 105.5t105 46q10 0 10 10v291q0 63 44 106t105 43q63 0 107.5 -43t44.5 -106v-291q0 -10 10 -10h68q10 0 10 10v291q0 63 44 106t108 43q61 0 105 -43t44 -106v-291 q0 -10 10 -10q61 -2 104.5 -46t43.5 -105.5t-43 -104.5t-105 -45q-10 0 -10 -11v-65q0 -10 10 -12q61 0 104.5 -44t43.5 -105.5t-43 -104.5t-105 -45q-10 0 -10 -11v-292q0 -61 -44 -105.5t-105 -44.5q-63 0 -107.5 44t-44.5 106v292q0 10 -10 11h-68q-10 0 -10 -11v-292 q0 -61 -44 -105.5t-108 -44.5q-61 0 -105 44t-44 106v292q0 10 -10 11q-61 2 -104.5 45t-43.5 104.5zM598 764q0 -12 10 -12h68q10 0 10 12v65q0 10 -10 11h-68q-10 0 -10 -11v-65z" />
<glyph unicode="$" d="M139 1118v62q0 143 86 254.5t219 148.5q10 2 11 14v70q0 61 44 105.5t107 44.5q61 0 105.5 -44t44.5 -106v-70q0 -12 10 -14q117 -31 199 -122t102 -214q2 -13 2 -26q0 -46 -29 -85q-37 -50 -98 -61q-13 -2 -26 -2q-46 0 -86 29q-50 37 -60 98q-6 43 -39 70.5t-74 27.5 h-104q-47 0 -81 -34.5t-34 -83.5v-62q0 -61 39 -108t98 -58l111 -18q168 -29 276.5 -159t108.5 -300v-63q0 -143 -86 -255t-219 -149q-10 -2 -10 -14v-76q0 -61 -44 -105t-106 -44q-63 0 -107 44t-44 105v76q0 12 -11 14q-115 33 -204 131q-96 104 -97 217q0 63 44 107.5 t108 44.5q51 0 93 -34t52 -87q18 -94 113 -94h104q47 0 81 34.5t34 84.5v63q0 61 -39 107.5t-98 56.5l-111 18q-168 29 -276.5 159t-108.5 302z" />
<glyph unicode="%" horiz-adv-x="1402" d="M137 1327q0 113 80 192.5t192.5 79.5t192.5 -79.5t80 -192.5t-80 -192.5t-192.5 -79.5t-192.5 79.5t-80 192.5zM190 158q0 39 19 71l723 1293q43 78 131 77q39 0 72 -20q78 -41 77 -129q0 -39 -18 -74l-723 -1292q-43 -76 -131 -76q-39 0 -72 19q-78 43 -78 131z M362 1327q0 -47 47.5 -47t47.5 47t-47.5 47t-47.5 -47zM721 280.5q0 112.5 80 191.5t192.5 79t192.5 -79t80 -191.5t-80 -192.5t-192.5 -80t-192.5 80t-80 192.5zM946 281q0 -49 47 -49.5t47 49.5q0 47 -47 47t-47 -47z" />
<glyph unicode="&#x26;" horiz-adv-x="1437" d="M137 408q0 147 96 262l162 196q6 8 0 19l-71 86q-88 106 -88 243q0 162 116 277q104 100 250 100q150 0 256.5 -108.5t106.5 -261.5q0 -135 -88 -240l-80 -98q-6 -8 0 -19l88 -106q6 -8 12 2l78 119q45 68 127 67q43 0 82 -24q68 -45 67 -127q0 -43 -24 -80l-131 -199 q-6 -10 2 -18l168 -207q35 -41 34 -94q0 -72 -55 -117q-43 -33 -96 -33q-70 0 -115 55l-108 131q-8 10 -15 0l-37 -57q-51 -84 -141 -131t-190 -47q-137 0 -246 84q-160 125 -160 326zM438 408q0 -82 74 -105q15 -5 31 -5q8 0 16 1q41 6 66 43l88 135q3 5 3 10t-3 9 l-111 133q-6 10 -14 0l-123 -150q-27 -30 -27 -71zM537 1214q0 -31 18 -55l35 -41q3 -4 6.5 -4t7.5 4l43 53q18 20 18.5 49t-18 50.5t-45.5 21.5q-29 0 -47 -24.5t-18 -53.5z" />
<glyph unicode="'" horiz-adv-x="575" d="M137 1294v148q0 63 44 106t108 43q61 0 105 -43t44 -106v-148q0 -61 -44 -105t-105 -44q-63 0 -107.5 44t-44.5 105z" />
<glyph unicode="(" horiz-adv-x="839" d="M137 416v762q0 172 122 292.5t294 120.5q61 0 105 -43t44 -106q0 -61 -44 -105.5t-105 -44.5q-49 0 -83 -33.5t-34 -80.5v-762q0 -47 34 -81t83 -34q61 0 105 -44t44 -107q0 -61 -44 -105.5t-105 -44.5q-172 0 -294 122t-122 294z" />
<glyph unicode=")" horiz-adv-x="839" d="M137 150q0 63 44 107t106 44q49 0 82.5 34t33.5 81v762q0 47 -33.5 80.5t-82.5 33.5q-61 0 -105.5 44t-44.5 106q0 63 44 106t106 43q172 0 293.5 -120.5t121.5 -292.5v-762q0 -172 -121.5 -294t-293.5 -122q-61 0 -105.5 44.5t-44.5 105.5z" />
<glyph unicode="*" horiz-adv-x="1118" d="M137 438q0 86 76 131l37 21q2 2 4 6q-2 4 -4 6l-37 21q-76 43 -76 131q0 39 21 73q43 76 129 76q41 0 75 -20l37 -23q10 -4 11 6v43q0 61 44 105.5t105.5 44.5t105.5 -44t44 -106v-43q0 -10 10 -6l37 23q35 20 75 20q86 0 130 -76q20 -35 20 -75q0 -86 -76 -129l-37 -21 q-2 -2 -4 -6q2 -4 4 -6l37 -21q76 -43 76 -131q0 -39 -20 -73q-43 -76 -130 -76q-41 0 -75 20l-37 21q-10 6 -10 -4v-43q0 -63 -44 -106.5t-105.5 -43.5t-105.5 43t-44 107v43q0 10 -11 4l-37 -21q-35 -20 -73 -20q-88 0 -131 76q-21 34 -21 73z" />
<glyph unicode="+" horiz-adv-x="1052" d="M139 596q0 61 44 105t106 44h76q12 0 12 13v76q0 61 44 105t105.5 44t105.5 -44t44 -105v-76q0 -12 12 -13h76q61 0 105 -44t44 -105t-44 -105.5t-105 -44.5h-76q-12 0 -12 -12v-76q0 -61 -44 -105t-105.5 -44t-105.5 44t-44 105v76q0 12 -12 12h-76q-61 0 -105.5 44.5 t-44.5 105.5z" />
<glyph unicode="," horiz-adv-x="616" d="M137 170q0 72 50.5 121t121.5 49q70 0 120 -49t50 -121v-225q0 -33 -22.5 -54.5t-53 -21.5t-53 21.5t-22.5 54.5v47q0 10 -11 10q-4 -2 -8 -2q-72 0 -122 50t-50 120z" />
<glyph unicode="." horiz-adv-x="616" d="M137 170q0 72 50.5 121t121.5 49q70 0 120 -49t50 -121q0 -70 -50 -120t-120 -50q-72 0 -122 50t-50 120z" />
<glyph unicode="/" horiz-adv-x="1161" d="M137 150q0 33 15 63l585 1292q41 86 137 86q31 0 62 -12q88 -41 88 -137q0 -31 -14 -62l-586 -1292q-41 -88 -137 -88q-31 0 -62 14q-88 40 -88 136z" />
<glyph unicode="0" d="M139 410v772q0 172 122 293.5t292 121.5h104q170 0 292 -121.5t122 -293.5v-772q0 -172 -122 -294t-292 -122h-104q-170 0 -292 122t-122 294zM438 410q0 -47 34 -82t81 -35h104q47 0 81 34.5t34 82.5v772q0 47 -33.5 80.5t-81.5 33.5h-104q-47 0 -81 -33.5t-34 -80.5 v-772z" />
<glyph unicode="1" d="M328 1292q0 88 73 131l258 148q35 20 74 20q61 0 105.5 -44t44.5 -105v-1292q0 -61 -44 -105.5t-105.5 -44.5t-105.5 44t-44 106v1021q0 10 -11 5l-22 -13q-35 -20 -74 -20q-86 0 -129 76q-20 34 -20 73z" />
<glyph unicode="2" d="M139 150q0 45 25 83l579 852q29 43 29 97q0 47 -33.5 80.5t-81.5 33.5h-104q-72 0 -102 -63q-41 -82 -136 -82q-35 0 -65 14q-84 43 -84 135q0 35 16 68q53 104 152.5 166.5t218.5 62.5h104q170 0 292 -121.5t122 -293.5q0 -145 -80 -264l-413 -609q-6 -10 4 -10h340 q61 0 105 -44t44 -105.5t-44 -105.5t-105 -44h-633q-63 0 -106.5 44.5t-43.5 105.5z" />
<glyph unicode="3" d="M139 1296q0 33 15 64q51 109 152.5 173t221.5 64h129q172 0 293 -121.5t121 -293.5v-121q0 -143 -88 -256q-6 -8 0 -19q88 -113 88 -256v-120q0 -170 -121 -292t-293 -122h-129q-119 0 -219 61.5t-153 167.5q-14 31 -15 66q0 94 82 135q31 16 68 16q92 0 133 -84 q33 -63 104 -63h129q47 0 81 34t34 81v120q0 47 -33.5 81t-81.5 34h-135q-61 0 -105 44t-44 108q0 61 44 105t105 44h135q47 0 81 34t34 81v121q0 47 -33.5 80.5t-81.5 33.5h-129q-74 0 -104 -65q-41 -86 -135 -86q-35 0 -66 14q-84 41 -84 137z" />
<glyph unicode="4" d="M139 451l180 1017q10 53 52.5 88t95.5 35q61 0 105 -44t44 -105q0 -14 -2 -27l-147 -829q0 -12 10 -13h78q10 0 10 13v207q0 61 44 105t106 44q63 0 106 -44t43 -105v-207q0 -12 13 -13h45q61 0 105 -43t44 -106q0 -61 -44 -105.5t-105 -44.5h-45q-12 0 -13 -10v-114 q0 -61 -43 -105.5t-106 -44.5q-61 0 -105.5 44t-44.5 106v114q0 10 -10 10h-268q-70 0 -115 54q-35 42 -35 93q-1 15 2 30z" />
<glyph unicode="5" d="M139 289q0 92 82 133q31 16 68 16q92 0 133 -82q33 -63 102 -63h133q47 0 81 34.5t34 82.5v213q0 49 -33.5 82.5t-81.5 33.5h-133q-70 0 -102 -63q-41 -82 -133 -82q-61 0 -105.5 44t-44.5 105v699q0 61 43 105t107 44h602q61 0 105 -44t44 -105q0 -63 -44 -106.5 t-105 -43.5h-442q-10 0 -11 -12v-242q0 -12 11 -10q47 10 75 10h133q172 0 294 -121.5t122 -293.5v-213q0 -172 -122 -294t-294 -122h-133q-117 0 -216 61.5t-152 165.5q-17 33 -17 68z" />
<glyph unicode="6" d="M139 410v772q0 172 122 293.5t292 121.5h104q119 0 219.5 -62t151.5 -171q16 -31 16 -66q0 -92 -83 -135q-31 -14 -66 -14q-94 0 -135 84q-31 63 -103 63h-104q-47 0 -81 -33.5t-34 -80.5v-150q0 -10 11 -8q51 14 104 14h104q170 0 292 -121.5t122 -293.5v-213 q0 -172 -122 -294t-292 -122h-104q-170 0 -292 122t-122 294zM438 410q0 -47 34 -82t81 -35h104q47 0 81 34.5t34 82.5v213q0 49 -33.5 82.5t-81.5 33.5h-104q-47 0 -81 -33.5t-34 -82.5v-213z" />
<glyph unicode="7" d="M141 1231v211q0 61 44 105t106 44h633q74 0 118 -57q32 -41 32 -89q0 -20 -5 -40l-315 -1292q-12 -49 -53.5 -81t-92.5 -32q-63 0 -107 43t-44 107q0 18 6 34l268 1096q2 12 -10 12h-268q-12 0 -13 -12v-49q0 -63 -44 -106.5t-105.5 -43.5t-105.5 43.5t-44 106.5z" />
<glyph unicode="8" d="M139 410v120q0 143 88 256q8 8 0 17q-88 115 -88 258v119q0 172 122 293.5t292 121.5h104q170 0 292 -121.5t122 -293.5v-119q0 -143 -88 -258q-8 -8 0 -17q88 -113 88 -256v-120q0 -172 -122 -294t-292 -122h-104q-170 0 -292 122t-122 294zM438 410q0 -47 34 -82 t81 -35h104q47 0 81 34.5t34 82.5v120q0 47 -33.5 81t-81.5 34h-104q-47 0 -81 -33.5t-34 -81.5v-120zM438 1061q0 -49 34 -83t81 -34h104q47 0 81 34t34 83v119q0 49 -33.5 82.5t-81.5 33.5h-104q-47 0 -81 -33.5t-34 -82.5v-119z" />
<glyph unicode="9" d="M139 967v215q0 172 122 293.5t292 121.5h104q170 0 292 -121.5t122 -293.5v-772q0 -172 -122 -294t-292 -122h-104q-119 0 -219.5 62.5t-151.5 168.5q-16 33 -16 68q0 92 84 133q31 16 65 16q94 0 136 -84q31 -66 102 -65h104q47 0 81 34.5t34 82.5v147q0 12 -10 8 q-53 -12 -105 -12h-104q-170 0 -292 122t-122 292zM438 967q0 -47 34 -81t81 -34h104q47 0 81 34t34 81v215q0 47 -33.5 80.5t-81.5 33.5h-104q-47 0 -81 -33.5t-34 -80.5v-215z" />
<glyph unicode=":" horiz-adv-x="616" d="M137 303q0 70 50.5 120t121.5 50q70 0 120 -50t50 -120q0 -72 -50 -121t-120 -49q-72 0 -122 49t-50 121zM137 823q0 70 50.5 120t121.5 50q70 0 120 -50t50 -120q0 -72 -50 -121t-120 -49q-72 0 -122 49t-50 121z" />
<glyph unicode=";" horiz-adv-x="616" d="M137 303q0 70 50.5 120t121.5 50q70 0 120 -50t50 -120v-227q0 -31 -22.5 -53.5t-53 -22.5t-53 22.5t-22.5 53.5v47q0 12 -11 10h-8q-72 0 -122 49t-50 121zM137 823q0 70 50.5 120t121.5 50q70 0 120 -50t50 -120q0 -72 -50 -121t-120 -49q-72 0 -122 49t-50 121z" />
<glyph unicode="&#x3c;" horiz-adv-x="862" d="M137 582q0 45 27 82l285 436q45 68 124 67q45 0 84 -24q68 -45 68 -125q0 -45 -27 -84l-225 -342q-6 -10 0 -19l225 -344q27 -37 27 -82q0 -80 -68 -124q-39 -25 -84 -25q-80 0 -124 68l-285 434q-27 37 -27 82z" />
<glyph unicode="=" horiz-adv-x="1048" d="M137 401q0 63 44 107.5t106 44.5h475q61 0 105 -44t44 -108q0 -61 -44 -105t-105 -44h-475q-61 0 -105.5 44t-44.5 105zM137 788q0 63 44 107.5t106 44.5h475q61 0 105 -44t44 -108q0 -61 -44 -105t-105 -44h-475q-61 0 -105.5 44t-44.5 105z" />
<glyph unicode="&#x3e;" horiz-adv-x="860" d="M137 147q0 45 25 82l225 344q6 8 0 19l-225 342q-25 39 -25 84q0 80 68 125q37 25 82 24q82 0 125 -67l286 -436q25 -37 25 -82t-25 -82l-286 -434q-43 -68 -125 -68q-45 0 -82 25q-68 44 -68 124z" />
<glyph unicode="?" horiz-adv-x="1177" d="M137 1292q0 35 17 66q51 106 152.5 169.5t219.5 63.5h103q78 0 151 -26q117 -47 188.5 -150.5t71.5 -230.5q0 -170 -122 -291l-142 -137q-49 -45 -49 -117v-49q0 -61 -43 -105.5t-106 -44.5q-61 0 -105.5 44t-44.5 106v49q0 197 141 332l140 137q32 32 31 73q0 12 -3 25 q-12 57 -65 78q-20 8 -43 8h-103q-72 0 -104 -65q-41 -84 -135 -84q-33 0 -64 14q-86 41 -86 135zM410 172q0 70 50 120t120 50q72 0 121 -50t49 -120q0 -72 -49.5 -121t-120.5 -49q-70 0 -120 49t-50 121z" />
<glyph unicode="@" horiz-adv-x="1441" d="M137 416v762q0 172 122 292.5t294 120.5h336q172 0 294 -120.5t122 -292.5v-390q0 -160 -114 -273.5t-276 -113.5q-158 0 -271.5 113t-113.5 272.5t114 273.5t271 114h78q12 0 11 10q-2 47 -36 77.5t-79 30.5h-336q-47 0 -81 -33.5t-34 -80.5v-762q0 -47 34 -81t81 -34 h336q37 0 65 18q39 29 84 29q80 0 125 -65q27 -39 27 -86q0 -78 -66 -123q-106 -74 -235 -74h-336q-172 0 -294 122t-122 294zM829 786q0 -35 26 -60.5t60 -25.5q37 0 63 26t26 62v74q0 10 -11 10h-78q-35 0 -60.5 -24.5t-25.5 -61.5z" />
<glyph unicode="A" horiz-adv-x="1198" d="M70 150q0 20 6 43l379 1290q33 109 143 108q113 0 145 -108l379 -1290q6 -23 6 -43q0 -63 -44 -106.5t-105 -43.5q-113 0 -143 106l-50 166q-4 10 -14 11h-346q-10 0 -14 -11l-50 -166q-31 -106 -143 -106q-61 0 -105 43.5t-44 106.5zM506 594q-2 -10 8 -10h170 q10 0 8 10l-88 301q-2 4 -6 4q-2 0 -4 -4z" />
<glyph unicode="B" d="M139 150v1292q0 61 44 105t106 44h368q170 0 292 -121.5t122 -293.5v-115q0 -143 -88 -256q-8 -8 0 -19q88 -113 88 -256v-114q0 -172 -122 -294t-292 -122h-368q-61 0 -105.5 44.5t-44.5 105.5zM438 311q0 -10 13 -10h206q47 0 81 34t34 81v114q0 47 -33.5 81t-81.5 34 h-206q-12 0 -13 -10v-324zM438 956q0 -10 13 -10h206q47 0 81 34t34 81v115q0 49 -33.5 82.5t-81.5 33.5h-206q-12 0 -13 -12v-324z" />
<glyph unicode="C" horiz-adv-x="1183" d="M137 410v772q0 172 122 293.5t294 121.5h102q121 0 222.5 -64.5t152.5 -172.5q16 -31 17 -64q0 -94 -86 -135q-31 -16 -66 -16q-94 0 -135 86q-31 66 -105 65h-102q-47 0 -81 -33.5t-34 -80.5v-772q0 -47 34 -82t81 -35h102q74 0 105 65q41 84 135 84q35 0 66 -14 q84 -41 83 -135q0 -35 -14 -66q-53 -106 -154.5 -169.5t-220.5 -63.5h-102q-172 0 -294 122t-122 294z" />
<glyph unicode="D" d="M139 150v1292q0 61 44 105t106 44h368q170 0 292 -121.5t122 -293.5v-762q0 -170 -122 -292t-292 -122h-368q-61 0 -105.5 44.5t-44.5 105.5zM438 311q0 -12 13 -12h206q47 0 81 34t34 81v762q0 49 -33.5 82.5t-81.5 33.5h-206q-12 0 -13 -12v-969z" />
<glyph unicode="E" horiz-adv-x="1136" d="M139 150v1292q0 61 44 105t106 44h559q61 0 105 -44t44 -105q0 -63 -44 -106.5t-105 -43.5h-397q-12 0 -13 -12v-324q0 -12 13 -12h323q61 0 105.5 -43t44.5 -106q0 -61 -44 -105.5t-106 -44.5h-323q-12 0 -13 -10v-324q0 -12 13 -12h397q61 0 105 -44t44 -105.5 t-44 -105.5t-105 -44h-559q-61 0 -105.5 44.5t-44.5 105.5z" />
<glyph unicode="F" horiz-adv-x="1136" d="M139 150v1292q0 61 44 105t106 44h559q61 0 105 -44t44 -105q0 -63 -44 -106.5t-105 -43.5h-397q-12 0 -13 -12v-324q0 -12 13 -12h323q61 0 105.5 -43t44.5 -106q0 -61 -44 -105.5t-106 -44.5h-323q-12 0 -13 -10v-485q0 -61 -44 -105.5t-105.5 -44.5t-105.5 44.5 t-44 105.5z" />
<glyph unicode="G" d="M139 410v772q0 172 122 293.5t292 121.5h104q117 0 219.5 -64.5t153.5 -170.5q14 -31 14 -66q0 -92 -83 -133q-31 -16 -66 -16q-94 0 -135 84q-31 66 -103 65h-104q-47 0 -81 -33.5t-34 -80.5v-772q0 -47 34 -82t81 -35h104q47 0 81 34.5t34 82.5v225q0 10 -12 10h-37 q-61 0 -105.5 44t-44.5 108q0 61 44.5 105t105.5 44h199q61 0 105 -44t44 -105v-387q0 -172 -122 -294t-292 -122h-104q-170 0 -292 122t-122 294z" />
<glyph unicode="H" d="M139 150v1292q0 61 44 105t105.5 44t105.5 -44t44 -105v-486q0 -12 13 -12h309q12 0 12 12v486q0 61 44 105t105.5 44t105.5 -44t44 -105v-1292q0 -61 -44 -105.5t-105.5 -44.5t-105.5 44t-44 106v485q0 10 -12 10h-309q-12 0 -13 -10v-485q0 -61 -44 -105.5 t-105.5 -44.5t-105.5 44.5t-44 105.5z" />
<glyph unicode="I" horiz-adv-x="575" d="M137 150v1292q0 61 44 105t108 44q61 0 105 -44t44 -105v-1292q0 -61 -44 -105.5t-105 -44.5q-63 0 -107.5 44.5t-44.5 105.5z" />
<glyph unicode="J" horiz-adv-x="1077" d="M137 149.5q0 61.5 44 105.5t108 44h235q47 0 81 34t34 81v1028q0 61 44 105t105 44q63 0 107.5 -44t44.5 -105v-1028q0 -170 -122 -292t-294 -122h-235q-63 0 -107.5 44t-44.5 105.5z" />
<glyph unicode="K" d="M139 150v1292q0 61 44 105t105.5 44t105.5 -44t44 -105v-393q0 -14 8 -2l355 483q45 61 121 61q49 0 88 -28q61 -45 61 -121q0 -49 -29 -88l-364 -500q-8 -10 -2 -18l373 -609q23 -35 22 -77q0 -84 -72 -127q-35 -23 -77 -23q-84 0 -127 72l-310 501q-6 10 -12 2l-29 -38 q-6 -8 -6 -19v-368q0 -61 -44 -105.5t-105.5 -44.5t-105.5 44.5t-44 105.5z" />
<glyph unicode="L" horiz-adv-x="1136" d="M139 150v1292q0 61 44 105t105.5 44t105.5 -44t44 -105v-1131q0 -12 13 -12h397q61 0 105 -44t44 -105.5t-44 -105.5t-105 -44h-559q-61 0 -105.5 44.5t-44.5 105.5z" />
<glyph unicode="M" horiz-adv-x="1482" d="M139 150v1292q0 61 44 105t106 44q92 0 135 -84l313 -639q4 -10 8 0l314 639q41 84 135 84q61 0 105 -44t44 -105v-1292q0 -61 -44 -105.5t-105 -44.5t-105.5 44t-44.5 106v626q0 4 -4 4q-4 2 -4 -2l-159 -325q-41 -84 -135.5 -84t-135.5 84l-160 325q0 4 -4 2 q-4 0 -4 -4v-626q0 -61 -44 -105.5t-105.5 -44.5t-105.5 44.5t-44 105.5z" />
<glyph unicode="N" d="M139 150v1292q0 61 44 105t106 44q92 0 133 -84l342 -694q2 -4 4 -2q4 0 4 4v627q0 61 44 105t105.5 44t105.5 -44t44 -105v-1292q0 -61 -44 -105.5t-105 -44.5q-92 0 -134 84l-342 694q-2 2 -4 2q-4 0 -4 -4v-626q0 -61 -44 -105.5t-105.5 -44.5t-105.5 44.5t-44 105.5z " />
<glyph unicode="O" d="M139 410v772q0 172 122 293.5t292 121.5h104q170 0 292 -121.5t122 -293.5v-772q0 -172 -122 -294t-292 -122h-104q-170 0 -292 122t-122 294zM438 410q0 -47 34 -82t81 -35h104q47 0 81 34.5t34 82.5v772q0 47 -33.5 80.5t-81.5 33.5h-104q-47 0 -81 -33.5t-34 -80.5 v-772z" />
<glyph unicode="P" d="M139 150v1292q0 61 44 105t106 44h368q170 0 292 -121.5t122 -293.5v-115q0 -172 -122 -294t-292 -122h-206q-12 0 -13 -10v-485q0 -61 -44 -105.5t-105.5 -44.5t-105.5 44.5t-44 105.5zM438 956q0 -10 13 -10h206q47 0 81 34t34 81v115q0 49 -33.5 82.5t-81.5 33.5h-206 q-12 0 -13 -12v-324z" />
<glyph unicode="Q" d="M139 410v772q0 172 122 293.5t292 121.5h104q170 0 292 -121.5t122 -293.5v-772q0 -147 -92 -263q-8 -8 -2 -18l72 -113q23 -37 22 -79q0 -82 -70 -127q-37 -23 -79 -23q-82 0 -127 70l-82 131q-6 10 -17 8q-23 -2 -39 -2h-104q-170 0 -292 122t-122 294zM438 410 q0 -47 34 -82t81 -35h104q47 0 81 35t34 82v772q0 47 -33.5 80.5t-81.5 33.5h-104q-47 0 -81 -33.5t-34 -80.5v-772z" />
<glyph unicode="R" d="M139 150v1292q0 61 44 105t106 44h368q170 0 292 -121.5t122 -293.5v-115q0 -227 -192 -350q-8 -6 -5 -17l187 -491q10 -27 10 -53q0 -61 -44 -105.5t-105 -44.5q-102 0 -140 96l-207 539q-4 10 -16 10h-108q-12 0 -13 -10v-485q0 -61 -44 -105.5t-105.5 -44.5 t-105.5 44.5t-44 105.5zM438 956q0 -10 13 -10h206q47 0 81 34t34 81v115q0 49 -33.5 82.5t-81.5 33.5h-206q-12 0 -13 -12v-324z" />
<glyph unicode="S" d="M139 1116v64q0 172 122 294.5t292 122.5h104q154 0 269.5 -99t140.5 -251q2 -13 2 -26q0 -46 -29 -85q-37 -50 -98 -61q-13 -2 -26 -2q-46 0 -86 29q-50 37 -60 98q-6 43 -39 70.5t-74 27.5h-104q-47 0 -81 -34.5t-34 -83.5v-64q0 -61 39 -107t98 -57l111 -18 q168 -29 276.5 -159t108.5 -302v-61q0 -174 -122 -296t-292 -122h-104q-147 0 -274 106q-135 111 -136 256q0 63 44 106.5t108 43.5q51 0 93 -33t52 -86q18 -94 113 -94h104q47 0 81 34.5t34 84.5v61q0 61 -39 108.5t-98 57.5l-111 18q-168 29 -276.5 159t-108.5 300z" />
<glyph unicode="T" d="M139 1442q0 61 44 105t106 44h633q61 0 105 -44t44 -105q0 -63 -44 -106.5t-105 -43.5h-156q-10 0 -10 -12v-1130q0 -61 -44 -105.5t-106 -44.5q-63 0 -107 44t-44 106v1130q0 12 -11 12h-155q-61 0 -105.5 43.5t-44.5 106.5z" />
<glyph unicode="U" d="M139 410v1032q0 61 44 105t105.5 44t105.5 -44t44 -105v-1032q0 -47 34 -82t81 -35h104q47 0 81 34.5t34 82.5v1032q0 61 44 105t105.5 44t105.5 -44t44 -105v-1032q0 -172 -122 -294t-292 -122h-104q-170 0 -292 122t-122 294z" />
<glyph unicode="V" horiz-adv-x="1335" d="M139 1442q0 61 44 105t106 44q111 0 143 -108l232 -787q0 -4 4 -4t4 4l231 787q33 109 144 108q61 0 105 -44t44 -105q0 -23 -4 -43l-381 -1293q-31 -106 -143.5 -106t-143.5 106l-381 1293q-4 20 -4 43z" />
<glyph unicode="W" horiz-adv-x="1792" d="M139 1442q0 61 44 105t106 44q51 0 92 -31.5t53 -82.5l154 -654q0 -4 4 -4t4 4l154 654q12 49 53 81.5t94 32.5q51 0 92 -32.5t53 -81.5l154 -654q0 -4 4 -4t4 4l154 654q12 51 53 82.5t92 31.5q61 0 105.5 -44t44.5 -105q0 -18 -4 -35l-303 -1292q-12 -51 -53.5 -83 t-92.5 -32q-53 0 -94 31.5t-51 83.5l-154 653q-2 4 -6 4q-2 0 -4 -4l-154 -653q-10 -51 -51 -83t-94 -32q-51 0 -92 31.5t-54 83.5l-303 1292q-4 17 -4 35z" />
<glyph unicode="X" d="M139 150q0 35 17 65l278 569q4 10 0 21l-278 571q-16 31 -17 66q0 92 84 133q31 16 66 16q94 0 135 -84l176 -360q4 -10 10 0l176 360q41 84 136 84q35 0 65 -16q84 -41 84 -133q0 -35 -16 -66l-279 -571q-4 -10 0 -21l279 -569q16 -31 16 -65q0 -94 -84 -136 q-31 -14 -65 -14q-94 0 -136 84l-176 360q-6 10 -10 0l-176 -360q-41 -84 -135 -84q-35 0 -66 14q-84 42 -84 136z" />
<glyph unicode="Y" d="M139 1442q0 92 84 133q31 16 66 16q92 0 133 -84l178 -360q4 -10 10 0l178 360q41 84 134 84q35 0 65 -16q84 -41 84 -133q0 -35 -14 -66l-299 -608q-2 -6 -2 -14v-604q0 -61 -44 -105.5t-106 -44.5q-63 0 -107 44t-44 106v604q0 8 -2 12l-299 610q-15 31 -15 66z" />
<glyph unicode="Z" d="M139 150q0 35 15 65l522 1067q6 10 -6 10h-381q-61 0 -105.5 43t-44.5 107q0 61 44 105t106 44h633q63 0 106 -44t43 -105q0 -35 -14 -66l-522 -1067q-6 -10 6 -10h381q61 0 105 -44t44 -105.5t-44 -105.5t-105 -44h-633q-63 0 -106.5 44.5t-43.5 105.5z" />
<glyph unicode="[" horiz-adv-x="833" d="M139 150v1292q0 63 44 106t106 43h256q61 0 105 -43t44 -106q0 -61 -44 -105.5t-105 -44.5h-94q-12 0 -13 -10v-971q0 -10 13 -10h94q61 0 105 -44t44 -107q0 -61 -44 -105.5t-105 -44.5h-256q-61 0 -105.5 44.5t-44.5 105.5z" />
<glyph unicode="\" horiz-adv-x="1161" d="M137 1442q0 96 88 137q31 12 62 12q96 0 137 -86l586 -1292q14 -31 14 -63q0 -96 -88 -136q-31 -14 -62 -14q-98 0 -137 88l-585 1292q-15 31 -15 62z" />
<glyph unicode="]" horiz-adv-x="833" d="M139 150q0 63 43 107t107 44h94q12 0 12 10v971q0 10 -12 10h-94q-63 0 -106.5 44t-43.5 106q0 63 43 106t107 43h256q61 0 105 -43t44 -106v-1292q0 -61 -44 -105.5t-105 -44.5h-256q-63 0 -106.5 44.5t-43.5 105.5z" />
<glyph unicode="^" horiz-adv-x="970" d="M139 1219q0 57 37 100l197 223q45 49 112.5 49t112.5 -49l197 -223q37 -43 36 -100q0 -68 -51 -113q-41 -37 -98 -37q-68 0 -113 51l-75 88q-8 8 -17 0l-76 -88q-45 -51 -112 -51q-57 0 -99 37q-51 45 -51 113z" />
<glyph unicode="_" horiz-adv-x="1048" d="M137 150q0 63 44 107t106 44h475q61 0 105 -44t44 -107q0 -61 -44 -105.5t-105 -44.5h-475q-61 0 -105.5 44.5t-44.5 105.5z" />
<glyph unicode="`" horiz-adv-x="335" d="M0 1874q0 51 36 86t85 35t86 -35l94 -94q35 -37 35 -86q0 -51 -35 -86t-86 -35q-49 0 -84 35l-96 96q-35 35 -35 84z" />
<glyph unicode="a" horiz-adv-x="1112" d="M137 416v16q0 172 122 294t294 122h6q51 0 105 -14q2 2 4 6q-27 78 -109 78h-6q-37 0 -68 -21q-39 -29 -88 -29q-76 0 -121 62q-29 39 -28 88q0 76 61 121q109 78 244 78h6q172 0 294 -121t122 -293v-387q0 -172 -122 -294t-294 -122h-6q-172 0 -294 122t-122 294z M436 416q0 -47 34 -81t83 -34h6q49 0 83 34t34 81v16q0 49 -34 83t-83 34h-6q-49 0 -83 -34t-34 -83v-16z" />
<glyph unicode="b" horiz-adv-x="1112" d="M137 416v1026q0 61 44 105t106 44q63 0 106 -44t43 -105v-230q0 -10 13 -8q51 14 104 15h6q172 0 294 -122t122 -294v-387q0 -172 -122 -294t-294 -122h-6q-172 0 -294 122t-122 294zM436 416q0 -47 34 -81t83 -34h6q49 0 83 34t34 81v387q0 47 -34 81t-83 34h-6 q-49 0 -83 -34t-34 -81v-387z" />
<glyph unicode="c" horiz-adv-x="1083" d="M139 410v399q0 170 122 292t294 122h6q115 0 212 -58.5t153 -156.5q18 -35 18 -72q0 -90 -78 -133q-35 -18 -71 -19q-90 0 -133 78q-33 61 -101 62h-6q-49 0 -83 -34t-34 -81v-399q0 -47 34 -81t83 -34h6q70 0 103 61q41 78 131 78q37 0 71 -18q78 -41 78 -131 q0 -37 -18 -72q-53 -100 -151.5 -158.5t-213.5 -58.5h-6q-172 0 -294 122t-122 292z" />
<glyph unicode="d" horiz-adv-x="1112" d="M137 416v387q0 172 122 294t294 122h6q53 0 105 -15q12 -2 12 8v230q0 61 43 105t106 44q61 0 105.5 -44t44.5 -105v-1026q0 -172 -122 -294t-294 -122h-6q-172 0 -294 122t-122 294zM436 416q0 -47 34 -81t83 -34h6q49 0 83 34t34 81v387q0 47 -34 81t-83 34h-6 q-49 0 -83 -34t-34 -81v-387z" />
<glyph unicode="e" horiz-adv-x="1112" d="M137 410v397q0 172 122 294t294 122h6q172 0 294 -122t122 -294v-199q0 -61 -44 -105t-106 -44h-383q-6 0 -6 -6v-43q0 -47 34 -81t83 -34h6q57 0 92 45q45 61 121 61q49 0 90 -30q59 -45 60 -121q0 -49 -31 -90q-125 -164 -332 -164h-6q-172 0 -294 122t-122 292z M436 764q0 -6 6 -6h228q6 0 6 6v43q0 49 -35 83t-82 34h-6q-49 0 -83 -34t-34 -83v-43z" />
<glyph unicode="f" horiz-adv-x="892" d="M139 150v1028q0 170 122 291.5t294 121.5h49q61 0 105.5 -44t44.5 -105.5t-44 -105.5t-106 -44h-49q-49 0 -83 -33.5t-34 -80.5v-9q0 -6 6 -6h160q61 0 105.5 -44t44.5 -105.5t-44 -105.5t-106 -44h-160q-6 0 -6 -6v-708q0 -61 -43 -105.5t-106 -44.5q-61 0 -105.5 44.5 t-44.5 105.5z" />
<glyph unicode="g" horiz-adv-x="1107" d="M139 422v385q0 170 121 291t291 121h6q170 0 291 -121t121 -291v-803q0 -170 -121 -291t-291 -121h-6q-199 0 -324 156q-31 39 -30 92q0 72 55 117q41 31 92 31q72 0 117 -56q35 -43 90 -43h6q47 0 81 34t34 81v16q0 6 -4 5q-55 -14 -111 -15h-6q-170 0 -291 121 t-121 291zM436 422q0 -47 34 -81t81 -34h6q47 0 81 34t34 81v385q0 47 -34 81t-81 34h-6q-47 0 -81 -34t-34 -81v-385z" />
<glyph unicode="h" horiz-adv-x="1112" d="M137 150v1292q0 61 44 105t106 44q63 0 106 -44t43 -105v-230q0 -10 13 -8q51 14 104 15h6q172 0 294 -122t122 -294v-653q0 -61 -44 -105.5t-106 -44.5q-63 0 -106 44t-43 106v653q0 47 -34 81t-83 34h-6q-49 0 -83 -34t-34 -81v-653q0 -61 -43 -105.5t-106 -44.5 q-61 0 -105.5 44.5t-44.5 105.5z" />
<glyph unicode="i" horiz-adv-x="595" d="M127 1421q0 70 50 120t120 50q72 0 122 -50t50 -120q0 -72 -50 -121t-122 -49q-70 0 -120 49t-50 121zM147 150v890q0 61 44.5 105.5t105.5 44.5q63 0 107.5 -44t44.5 -106v-890q0 -61 -44.5 -105.5t-107.5 -44.5q-61 0 -105.5 44.5t-44.5 105.5z" />
<glyph unicode="j" horiz-adv-x="772" d="M129 -223q0 80 70 123l65 39q59 37 60 102v999q0 61 44 105.5t105.5 44.5t105.5 -44t44 -106v-999q0 -233 -209 -360l-52 -33q-39 -23 -81 -23q-86 0 -129 70q-23 39 -23 82zM303 1421.5q0 69.5 50 119.5t120 50t120 -50t50 -119.5t-50 -120t-120 -50.5t-120 50.5 t-50 120z" />
<glyph unicode="k" horiz-adv-x="1093" d="M139 150v1292q0 63 44 106t105.5 43t105.5 -43t44 -106v-584q0 -14 8 -2l222 301q45 59 120 60q49 0 89 -29q61 -45 61 -121q0 -49 -29 -88l-231 -315q-8 -8 -2 -19l256 -416q23 -37 22 -79q0 -84 -71 -127q-35 -23 -78 -23q-84 0 -127 72l-193 311q-6 10 -12 2l-29 -39 q-6 -8 -6 -18v-178q0 -61 -44 -105.5t-105.5 -44.5t-105.5 44.5t-44 105.5z" />
<glyph unicode="l" horiz-adv-x="720" d="M137 420v1022q0 61 44 105t106 44q63 0 107 -44t44 -105v-1022q0 -78 73 -139.5t73 -130.5q0 -43 -25 -82q-45 -68 -125 -68q-45 0 -82 25q-215 141 -215 395z" />
<glyph unicode="m" horiz-adv-x="1468" d="M139 150v696q0 154 108.5 263.5t264.5 109.5q117 0 213 -70q8 -6 18 0q96 70 213 70q156 0 264.5 -110t108.5 -263v-696q0 -61 -44 -105.5t-105.5 -44.5t-105.5 44t-44 106v696q0 29 -21.5 50.5t-52.5 21.5q-29 0 -50 -22t-21 -50v-696q0 -61 -44 -105.5t-108 -44.5 q-61 0 -105 44t-44 106v696q0 29 -21.5 50.5t-50.5 21.5q-31 0 -52.5 -22t-21.5 -50v-696q0 -61 -44 -105.5t-105.5 -44.5t-105.5 44.5t-44 105.5z" />
<glyph unicode="n" horiz-adv-x="1112" d="M137 150v653q0 172 122 294t294 122h6q172 0 294 -122t122 -294v-653q0 -61 -44 -105.5t-106 -44.5q-63 0 -106 44t-43 106v653q0 47 -34 81t-83 34h-6q-49 0 -83 -34t-34 -81v-653q0 -61 -43 -105.5t-106 -44.5q-61 0 -105.5 44.5t-44.5 105.5z" />
<glyph unicode="o" horiz-adv-x="1112" d="M137 410v399q0 170 122 292t294 122h6q172 0 294 -122t122 -292v-399q0 -170 -122 -292t-294 -122h-6q-172 0 -294 122t-122 292zM436 410q0 -47 34 -81t83 -34h6q47 0 82 33.5t35 81.5v399q0 47 -34 81t-83 34h-6q-49 0 -83 -34t-34 -81v-399z" />
<glyph unicode="p" horiz-adv-x="1112" d="M137 -221v1024q0 172 122 294t294 122h6q172 0 294 -122t122 -294v-387q0 -172 -122 -293t-294 -121h-6q-53 0 -104 12q-12 4 -13 -8v-227q0 -63 -43 -107.5t-106 -44.5q-61 0 -105.5 44.5t-44.5 107.5zM436 416q0 -47 34 -81t83 -34h6q49 0 83 34t34 81v387q0 49 -34 83 t-83 34h-6q-49 0 -83 -34t-34 -83v-387z" />
<glyph unicode="q" horiz-adv-x="1112" d="M137 416v387q0 172 122 294t294 122h6q172 0 294 -122t122 -294v-1024q0 -63 -44 -107.5t-106 -44.5q-63 0 -106 44t-43 108v227q0 12 -12 8q-51 -12 -105 -12h-6q-172 0 -294 121t-122 293zM436 416q0 -47 34 -81t83 -34h6q49 0 83 34t34 81v387q0 49 -34 83t-83 34h-6 q-49 0 -83 -34t-34 -83v-387z" />
<glyph unicode="r" horiz-adv-x="1013" d="M137 150v614q0 236 193 371q119 82 262 82q78 0 153 -27l31 -10q100 -37 101 -142q0 -61 -44.5 -105t-107.5 -44q-25 0 -49 8l-33 12q-25 8 -53 9q-61 0 -106.5 -45.5t-45.5 -108.5v-614q0 -61 -44 -105.5t-105 -44.5q-63 0 -107.5 44.5t-44.5 105.5z" />
<glyph unicode="s" horiz-adv-x="1003" d="M137 858q0 49 15 98q33 119 129 193t219 74h6q205 0 330 -166q31 -39 30 -90q0 -74 -59 -119q-41 -31 -90 -31q-76 0 -121 60q-35 47 -90 47h-6q-47 0 -60 -47q-4 -12 -3 -23q0 -31 32 -51l221 -131q174 -113 174 -312q0 -49 -12 -98q-33 -119 -129 -192.5t-219 -73.5h-6 q-203 0 -328 162q-31 41 -31 92q0 74 58 119q41 31 92 30q74 0 119 -59q35 -45 90 -45h6q47 0 59 47q3 11 3 21q0 32 -31 51l-222 133q-176 110 -176 311z" />
<glyph unicode="t" horiz-adv-x="890" d="M139 416v1026q0 63 43 106t107 43q61 0 105 -43t44 -106v-213q0 -10 11 -10h153q63 0 106.5 -44.5t43.5 -105.5q0 -63 -43 -107t-107 -44h-153q-10 0 -11 -11v-491q0 -47 34 -81t81 -34h49q63 0 106.5 -44t43.5 -107q0 -61 -43 -105.5t-107 -44.5h-49q-172 0 -293 122 t-121 294z" />
<glyph unicode="u" horiz-adv-x="1112" d="M137 410v657q0 63 44 107.5t106 44.5q63 0 106 -44.5t43 -107.5v-657q0 -47 34 -81t83 -34h6q49 0 83 33.5t34 81.5v657q0 63 43 107.5t106 44.5q61 0 105.5 -44.5t44.5 -107.5v-657q0 -170 -122 -292t-294 -122h-6q-172 0 -294 122t-122 292z" />
<glyph unicode="v" horiz-adv-x="1171" d="M139 1069q0 61 44 105.5t106 44.5q109 0 141 -105l152 -465q0 -2 4 -2t4 2l151 465q33 104 142 105q61 0 105 -44.5t44 -105.5q0 -25 -6 -47l-297 -918q-35 -104 -143.5 -104t-143.5 104l-297 918q-6 22 -6 47z" />
<glyph unicode="w" horiz-adv-x="1544" d="M139 1069q0 61 44 105.5t106 44.5q49 0 90 -31t53 -82l94 -352q0 -2 4.5 -2t4.5 2l92 352q31 113 145.5 113t145.5 -113l92 -352q0 -2 4 -2t4 2l94 352q12 51 53 82t90 31q61 0 105.5 -44.5t44.5 -105.5q0 -20 -4 -39l-242 -917q-31 -113 -145.5 -113t-145.5 113l-92 350 q0 4 -4 4t-4 -4l-92 -350q-31 -113 -145.5 -113t-145.5 113l-242 917q-4 19 -4 39z" />
<glyph unicode="x" horiz-adv-x="1110" d="M137 150q0 41 21 75l219 375q4 8 0 18l-219 375q-20 35 -21 74q0 88 76 131q35 20 74 21q86 0 129 -76l133 -228q6 -8 12 0l131 228q45 76 131 76q39 0 74 -21q76 -43 76 -131q0 -39 -21 -74l-219 -375q-4 -10 0 -18l219 -375q20 -35 21 -75q0 -86 -76 -130 q-35 -20 -74 -20q-86 0 -131 76l-131 225q-6 10 -12 0l-131 -225q-45 -76 -131 -76q-39 0 -74 20q-76 44 -76 130z" />
<glyph unicode="y" horiz-adv-x="1112" d="M137 1071q0 61 44 105.5t106 44.5q113 0 143 -109l121 -412q2 -4 6 -4q2 0 4 4l121 412q31 109 143 109q61 0 105.5 -44t44.5 -106q0 -23 -6 -43l-326 -1112q-31 -109 -127 -195q-102 -94 -211 -94q-61 0 -105 44t-44 106q0 51 32.5 93t83.5 52q66 16 84 80l41 141 q2 8 0 17l-254 868q-6 20 -6 43z" />
<glyph unicode="z" horiz-adv-x="1112" d="M137 150q0 41 21 75l399 684q6 8 -4 9h-266q-61 0 -105.5 44t-44.5 107q0 61 44 105.5t106 44.5h538q61 0 105.5 -44.5t44.5 -105.5q0 -41 -21 -76l-399 -684q-6 -8 4 -8h266q61 0 105.5 -44t44.5 -107q0 -61 -44 -105.5t-106 -44.5h-538q-61 0 -105.5 44.5t-44.5 105.5z " />
<glyph unicode="{" horiz-adv-x="1067" d="M139 796.5q0 61.5 43 105.5t107 44h63q12 0 13 12v220q0 172 120.5 292.5t292.5 120.5q63 0 106.5 -43t43.5 -106q0 -61 -43 -105.5t-107 -44.5q-47 0 -80.5 -33.5t-33.5 -80.5v-762q0 -47 33.5 -81t80.5 -34q63 0 106.5 -44t43.5 -107q0 -61 -43 -105.5t-107 -44.5 q-172 0 -292.5 122t-120.5 294v219q0 12 -13 12h-63q-63 0 -106.5 44t-43.5 105.5z" />
<glyph unicode="|" horiz-adv-x="575" d="M137 150v1292q0 63 44 106t106 43q63 0 107 -43t44 -106v-1292q0 -61 -44 -105.5t-107 -44.5q-61 0 -105.5 44.5t-44.5 105.5z" />
<glyph unicode="}" horiz-adv-x="1067" d="M139 150q0 63 43 107t107 44q47 0 80.5 34t33.5 81v762q0 47 -33.5 80.5t-80.5 33.5q-63 0 -106.5 44t-43.5 106q0 63 43 106t107 43q172 0 292.5 -120.5t120.5 -292.5v-220q0 -12 13 -12h63q63 0 106.5 -44t43.5 -105.5t-43 -105.5t-107 -44h-63q-12 0 -13 -12v-219 q0 -172 -120.5 -294t-292.5 -122q-63 0 -106.5 44.5t-43.5 105.5z" />
<glyph unicode="~" horiz-adv-x="1333" d="M139 700q0 41 19 76l32 55q98 172 295 172.5t295 -172.5l33 -57q12 -18 34.5 -18t35.5 20l32 58q43 74 129 73q41 0 76 -18q74 -43 74 -131q0 -39 -18 -74l-33 -57q-98 -172 -295 -172t-295 172l-33 57q-10 20 -35 21q-23 0 -34 -21l-33 -57q-43 -76 -129 -76 q-41 0 -76 20q-74 43 -74 129z" />
<glyph unicode="&#xa1;" horiz-adv-x="595" d="M127 1421q0 72 50 121t120 49q72 0 122 -49t50 -121q0 -70 -50 -120t-122 -50q-70 0 -120 50t-50 120zM147 152v852q0 63 44.5 106t107.5 43q61 0 105.5 -44t44.5 -105v-852q0 -63 -44.5 -106.5t-105.5 -43.5q-63 0 -107.5 43.5t-44.5 106.5z" />
<glyph unicode="&#xa2;" horiz-adv-x="1081" d="M137 412v399q0 156 103.5 272.5t255.5 137.5q23 4 22 26v117q0 43 43 43t43 -43v-119q0 -23 23 -26q201 -33 297 -209q18 -35 18 -72q0 -90 -78 -133q-33 -18 -71 -19q-88 0 -131 78q-12 25 -35 41q-23 12 -23 -12v-563q0 -25 23 -13q23 16 35 41q43 78 133 78 q37 0 69 -18q80 -41 80 -131q0 -37 -18 -72q-96 -178 -299 -211q-23 -4 -23 -27v-118q0 -43 -43 -43t-43 43v116q0 23 -22 27q-152 20 -255.5 137t-103.5 273zM438 412q0 -66 58 -99q8 -4 12 -4q10 0 10 17v571q0 16 -10 16q-5 0 -12 -4q-57 -33 -58 -98v-399z" />
<glyph unicode="&#xa3;" horiz-adv-x="1413" d="M137 152q0 63 44 107t106 44h80q23 0 22 23v247q0 23 -22 23h-80q-61 0 -105.5 43t-44.5 106q0 61 44 105.5t106 44.5h80q23 0 22 23v258q0 172 122 293.5t292 121.5h57q172 0 294 -121.5t122 -293.5v-330q0 -61 -44 -105.5t-105.5 -44.5t-105.5 44t-44 106v330 q0 49 -34 82.5t-83 33.5h-57q-47 0 -81 -33.5t-34 -82.5v-258q0 -23 23 -23h51q61 0 105 -44t44 -106q0 -63 -44 -106t-105 -43h-51q-23 0 -23 -23v-247q0 -23 23 -23h415q61 0 105.5 -44t44.5 -107q0 -61 -44 -105.5t-106 -44.5h-839q-61 0 -105.5 44.5t-44.5 105.5z" />
<glyph unicode="&#xa5;" d="M139 463q0 63 44 107t106 44h155q10 0 11 11v57q0 10 -11 10h-155q-61 0 -105.5 44t-44.5 108q0 61 44 105t106 44h43q10 0 6 11l-184 372q-14 31 -15 66q0 94 84 135q31 14 66 14q92 0 135 -84l176 -360q2 -2 6 -2q2 0 4 2l178 360q41 84 134 84q35 0 65 -14 q84 -41 84 -135q0 -35 -14 -66l-185 -372q-4 -10 7 -11h43q61 0 105 -44t44 -105q0 -63 -44 -107.5t-105 -44.5h-156q-10 0 -10 -10v-57q0 -10 10 -11h156q61 0 105 -44t44 -107q0 -61 -44 -105.5t-105 -44.5h-156q-10 0 -10 -10v-153q0 -61 -44 -105.5t-106 -44.5 q-63 0 -107 44t-44 106v153q0 10 -11 10h-155q-61 0 -105.5 44.5t-44.5 105.5z" />
<glyph unicode="&#xa6;" horiz-adv-x="573" d="M137 152v454q0 61 44 105.5t105.5 44.5t105.5 -44t44 -106v-454q0 -61 -44 -105.5t-105.5 -44.5t-105.5 44.5t-44 105.5zM137 989v455q0 61 44 105t105.5 44t105.5 -44t44 -105v-455q0 -61 -44 -105t-105.5 -44t-105.5 44t-44 105z" />
<glyph unicode="&#xa7;" horiz-adv-x="999" d="M135 1227q0 51 15 100q33 119 129 192.5t219 73.5h6q205 0 330 -166q31 -39 30 -90q0 -74 -59 -118q-41 -31 -90 -31q-76 0 -121 59q-35 47 -90 47h-6q-47 0 -60 -47q-4 -12 -3 -22q0 -31 32 -51l221 -134q143 -86 170 -249q6 -35 6 -68q0 -127 -88 -229q-14 -18 0 -35 q86 -100 86 -236q0 -49 -12 -98q-33 -121 -129 -193.5t-219 -72.5h-6q-203 0 -328 161q-31 41 -31 93q0 74 58 118q41 31 92 31q74 0 119 -59q35 -45 90 -45h6q47 0 59 47q3 11 3 20q0 32 -32 51l-221 134q-143 96 -170 245q-7 37 -6 72q0 128 88 231q14 16 0 35 q-88 101 -88 234zM434 725q0 -63 66 -63q63 0 63 63q0 66 -63 66q-66 0 -66 -66z" />
<glyph unicode="&#xa8;" horiz-adv-x="1136" d="M207 1602q0 72 49 121t121 49q70 0 120 -49.5t50 -120.5v-226q0 -33 -22.5 -54.5t-53.5 -21.5t-52.5 21.5t-21.5 54.5v47q0 10 -12 11q-4 -2 -8 -2q-72 0 -121 50t-49 120zM590 1602q0 72 50 121t120 49q72 0 121 -49.5t49 -120.5v-226q0 -33 -21.5 -54.5t-52.5 -21.5 t-53.5 21.5t-22.5 54.5v47q0 10 -10 11q-6 -2 -10 -2q-70 0 -120 50t-50 120z" />
<glyph unicode="&#xa9;" horiz-adv-x="1867" d="M137 796.5q0 329.5 233.5 562t563.5 232.5t563.5 -232.5t233.5 -562t-233.5 -563t-563.5 -233.5t-563.5 233.5t-233.5 563zM438 796.5q0 -204.5 145.5 -350t350.5 -145.5t350.5 145.5t145.5 350t-145.5 350t-350.5 145.5t-350.5 -145.5t-145.5 -350zM535 796.5 q0 161.5 113.5 275.5t275 114t276.5 -113q39 -39 39 -94q0 -53 -39 -92t-92 -39q-45 0 -92 39t-92 39q-53 0 -90 -38t-37 -91.5t36.5 -91t90.5 -37.5q45 0 92 37.5t92 37.5q53 0 92 -37.5t39 -93.5q0 -53 -39 -92q-115 -115 -276.5 -114.5t-275 115t-113.5 276z" />
<glyph unicode="&#xaa;" horiz-adv-x="839" d="M137 1268v12q0 117 82 199t199 82h4q29 0 55 -7q8 0 12 5q4 6 0 12q-23 39 -67 39h-4q-33 0 -56 -23q-31 -31 -71 -31q-43 0 -72 30t-29 73q0 41 29 70q82 82 199 81h4q117 0 198.5 -81.5t81.5 -198.5v-262q0 -115 -81.5 -198t-198.5 -83h-4q-117 0 -199 83t-82 198z M338 1268q0 -33 23.5 -55.5t56.5 -22.5h4q33 0 56.5 22.5t23.5 55.5v12q0 33 -23.5 56.5t-56.5 23.5h-4q-33 0 -56.5 -23.5t-23.5 -56.5v-12z" />
<glyph unicode="&#xab;" horiz-adv-x="1337" d="M137 582q0 45 27 82l285 436q45 68 124 67q45 0 84 -24q68 -45 68 -125q0 -45 -27 -84l-225 -342q-6 -10 0 -19l225 -344q27 -37 27 -82q0 -80 -68 -124q-39 -25 -84 -25q-80 0 -124 68l-285 434q-27 37 -27 82zM612 582q0 45 27 82l285 436q45 68 125 67q45 0 84 -24 q68 -45 67 -125q0 -45 -26 -84l-226 -342q-6 -10 0 -19l226 -344q27 -37 26 -82q0 -82 -67 -124q-39 -25 -84 -25q-80 0 -125 68l-285 434q-27 37 -27 82z" />
<glyph unicode="&#xac;" horiz-adv-x="1433" d="M137 537q0 68 47 114.5t115 46.5h836q68 0 114.5 -47t46.5 -114v-375q0 -68 -47 -115t-114 -47q-66 0 -113 47t-47 115v190q0 25 -25 25h-651q-68 0 -115 47t-47 113z" />
<glyph unicode="&#xad;" horiz-adv-x="1048" d="M137 596q0 61 44 105t106 44h475q61 0 105 -44t44 -105t-44 -105.5t-105 -44.5h-475q-61 0 -105.5 44.5t-44.5 105.5z" />
<glyph unicode="&#xae;" horiz-adv-x="1867" d="M137 796.5q0 329.5 233.5 562t563.5 232.5t563.5 -232.5t233.5 -562t-233.5 -563t-563.5 -233.5t-563.5 233.5t-233.5 563zM438 796.5q0 -204.5 145.5 -350t350.5 -145.5t350.5 145.5t145.5 350t-145.5 350t-350.5 145.5t-350.5 -145.5t-145.5 -350zM733 535v520 q0 41 30 71.5t73 30.5h147q86 0 147.5 -61.5t61.5 -147.5v-47q0 -88 -64 -149q-8 -8 -4 -19l62 -162q6 -18 6 -36q0 -43 -29.5 -73t-72.5 -30q-70 0 -97 66l-47 123q0 2 -4 2t-4 -5v-83q0 -43 -29.5 -73t-72.5 -30t-73 30t-30 73zM938 901q0 -4 4 -4h39q6 0 6 6v43q0 4 -6 4 h-39q-4 0 -4 -2v-47z" />
<glyph unicode="&#xaf;" horiz-adv-x="1048" d="M137 596q0 61 44 105t106 44h475q61 0 105 -44t44 -105t-44 -105.5t-105 -44.5h-475q-61 0 -105.5 44.5t-44.5 105.5z" />
<glyph unicode="&#x2c9;" horiz-adv-x="1048" d="M137 596q0 61 44 105t106 44h475q61 0 105 -44t44 -105t-44 -105.5t-105 -44.5h-475q-61 0 -105.5 44.5t-44.5 105.5z" />
<glyph unicode="&#xb0;" horiz-adv-x="1867" d="M137 796.5q0 329.5 233.5 562t563.5 232.5t563.5 -232.5t233.5 -562t-233.5 -563t-563.5 -233.5t-563.5 233.5t-233.5 563zM438 796.5q0 -204.5 145.5 -350t350.5 -145.5t350.5 145.5t145.5 350t-145.5 350t-350.5 145.5t-350.5 -145.5t-145.5 -350z" />
<glyph unicode="&#xb1;" horiz-adv-x="1048" d="M137 152q0 63 44 107t106 44h475q61 0 105 -44t44 -107q0 -61 -44 -105.5t-105 -44.5h-475q-61 0 -105.5 44.5t-44.5 105.5zM137 798.5q0 61.5 44 105.5t106 44h75q12 0 13 13v75q0 61 44 105.5t105.5 44.5t105.5 -44t44 -106v-75q0 -12 12 -13h76q61 0 105 -44 t44 -105.5t-44 -105.5t-105 -44h-76q-12 0 -12 -12v-76q0 -61 -44 -105t-105.5 -44t-105.5 44t-44 105v76q0 12 -13 12h-75q-61 0 -105.5 44t-44.5 105.5z" />
<glyph unicode="&#xb2;" horiz-adv-x="925" d="M125 1272q0 131 92 223t223 92h43q94 0 173 -51t118 -135q25 -59 25 -123q0 -109 -70 -193l-272 -327q-6 -4 -2 -10q2 -6 8 -7h237q41 0 71 -29.5t30 -70.5q0 -43 -30 -71.5t-71 -28.5h-475q-63 0 -92 57q-10 23 -10 44q0 33 24 63l428 509q24 29 24 61q0 20 -9 42 q-31 70 -107 69h-43q-47 0 -80.5 -33.5t-33.5 -77.5t-30 -74t-71 -30t-70.5 30t-29.5 71z" />
<glyph unicode="&#xb3;" horiz-adv-x="841" d="M119 1372q0 23 10 43q37 78 111.5 124t160.5 46h21q123 0 212 -88t89 -211v-22q0 -100 -64 -183q-12 -18 0 -34q63 -82 64 -183v-22q0 -125 -89 -213t-212 -88h-21q-186 0 -268 166q-12 23 -12 45q0 43 29.5 72.5t70.5 29.5q51 0 90 -55.5t90 -55.5h21q41 0 69.5 29 t28.5 70v22q0 41 -28.5 70t-69.5 29h-25q-43 0 -71.5 29.5t-28.5 70.5q0 43 28.5 72.5t71.5 29.5h25q41 0 69.5 29t28.5 70v22q0 41 -28.5 69.5t-69.5 28.5h-21q-51 0 -90 -57t-90 -57q-43 0 -72.5 29.5t-29.5 72.5z" />
<glyph unicode="&#xb4;" horiz-adv-x="612" d="M137 1780q0 49 37 86l94 94q35 35 86 35q49 0 85 -35t36 -86q0 -49 -37 -84l-94 -96q-35 -35 -86 -35q-49 0 -85 35t-36 86z" />
<glyph unicode="&#xb5;" horiz-adv-x="1112" d="M137 -80v1151q0 61 44 105.5t106 44.5q63 0 106 -44t43 -106v-657q0 -49 35 -83t82 -34h6q49 0 83 34t34 83v657q0 61 43 105.5t106 44.5q61 0 105.5 -44t44.5 -106v-657q0 -172 -122 -294t-294 -122h-6q-47 0 -94 12q-23 4 -23 -18v-72q0 -61 -43 -105t-106 -44 q-61 0 -105.5 44t-44.5 105z" />
<glyph unicode="&#x3bc;" horiz-adv-x="1112" d="M137 -80v1151q0 61 44 105.5t106 44.5q63 0 106 -44t43 -106v-657q0 -49 35 -83t82 -34h6q49 0 83 34t34 83v657q0 61 43 105.5t106 44.5q61 0 105.5 -44t44.5 -106v-657q0 -172 -122 -294t-294 -122h-6q-47 0 -94 12q-23 4 -23 -18v-72q0 -61 -43 -105t-106 -44 q-61 0 -105.5 44t-44.5 105z" />
<glyph unicode="&#xb6;" horiz-adv-x="1460" d="M137 852v326q0 172 122 293.5t294 121.5h621q61 0 105 -44t44 -105v-1292q0 -61 -44 -105.5t-105 -44.5q-63 0 -107.5 44t-44.5 106v262q0 23 -23 22h-45q-23 0 -22 -22v-262q0 -61 -44 -105.5t-106 -44.5q-63 0 -107 44t-44 106v262q0 23 -23 22h-55q-172 0 -294 122 t-122 294zM438 852q0 -47 34 -81t81 -34h55q23 0 23 23v510q0 25 -23 24h-55q-47 0 -81 -33.5t-34 -82.5v-326zM932 760q0 -23 22 -23h58q10 0 10 11v534q0 12 -10 12h-58q-23 0 -22 -24v-510z" />
<glyph unicode="&#xb7;" horiz-adv-x="616" d="M137 618.5q0 69.5 50.5 119.5t121.5 50q70 0 120 -50t50 -119.5t-50 -119.5t-120 -50q-72 0 -122 50t-50 119.5z" />
<glyph unicode="&#x2219;" horiz-adv-x="616" d="M137 618.5q0 69.5 50.5 119.5t121.5 50q70 0 120 -50t50 -119.5t-50 -119.5t-120 -50q-72 0 -122 50t-50 119.5z" />
<glyph unicode="&#xb8;" horiz-adv-x="813" d="M137 -248q0 66 47 113t115 47h55v164q0 68 47.5 115t112.5 47q68 0 115 -47.5t47 -114.5v-211q0 -113 -81 -194t-194 -81h-102q-68 0 -115 47t-47 115z" />
<glyph unicode="&#xb9;" horiz-adv-x="964" d="M285 1374q0 57 51 86l192 113q26 14 51 14t50 -14q51 -29 51 -88v-842q0 -43 -29.5 -72.5t-70.5 -29.5q-43 0 -73 29.5t-30 72.5v645q0 23 -18 12l-23 -14q-25 -12 -51 -12q-41 0 -70.5 29.5t-29.5 70.5z" />
<glyph unicode="&#xba;" horiz-adv-x="841" d="M137 1268v270q0 117 83 199t198 82h6q115 0 198 -82t83 -199v-270q0 -115 -83 -198t-198 -83h-6q-115 0 -198 83t-83 198zM340 1268q0 -33 22.5 -55.5t55.5 -22.5h6q33 0 55.5 22.5t22.5 55.5v270q0 33 -22.5 56.5t-55.5 23.5h-6q-33 0 -55.5 -23.5t-22.5 -56.5v-270z " />
<glyph unicode="&#xbb;" horiz-adv-x="1337" d="M137 147q0 45 27 82l225 344q6 8 0 19l-225 342q-27 39 -27 84q0 80 68 125q39 25 84 24q80 0 125 -67l284 -436q27 -37 27 -82t-27 -82l-284 -434q-45 -68 -125 -68q-45 0 -84 25q-68 42 -68 124zM612 147q0 45 27 82l225 344q6 8 0 19l-225 342q-27 39 -27 84 q0 80 68 125q39 25 84 24q80 0 125 -67l285 -436q27 -37 26.5 -82t-26.5 -82l-285 -434q-45 -68 -125 -68q-45 0 -84 25q-68 44 -68 124z" />
<glyph unicode="&#xbc;" horiz-adv-x="1882" d="M119 1374q0 57 51 86l192 113q26 14 52 14l51 -14q49 -29 49 -88v-842q0 -43 -29.5 -72.5t-70.5 -29.5t-71 29.5t-30 72.5v645q0 23 -20 12l-23 -14q-23 -12 -49 -12q-43 0 -72.5 29.5t-29.5 70.5zM406 98q0 27 14 49l776 1391q29 51 88 51q41 0 70.5 -28.5t29.5 -71.5 q0 -27 -12 -49l-778 -1391q-29 -51 -88 -51q-41 0 -70.5 29.5t-29.5 70.5zM1087 334l166 653q20 76 99 76q41 0 70.5 -29.5t29.5 -70.5q0 -12 -2 -27l-129 -506q-6 -20 16 -20h58q23 0 22 22v154q0 41 30 70.5t71 29.5t70.5 -29.5t29.5 -70.5v-154q0 -23 22 -22h21 q43 0 72.5 -30t29.5 -73q0 -41 -29.5 -70.5t-72.5 -29.5h-21q-23 0 -22 -23v-84q0 -41 -29.5 -70.5t-70.5 -29.5t-71 29.5t-30 70.5v84q0 23 -22 23h-211q-49 0 -79 39q-21 28 -21 60q-1 14 3 28z" />
<glyph unicode="&#xbd;" horiz-adv-x="2007" d="M119 1374q0 57 51 86l192 113q25 14 50 14t51 -14q51 -29 51 -88v-842q0 -43 -29.5 -72.5t-72.5 -29.5q-41 0 -71 29.5t-30 72.5v645q0 23 -18 12l-23 -14q-25 -12 -51 -12q-41 0 -70.5 29.5t-29.5 70.5zM406 98q0 27 12 49l776 1391q29 51 88 51q41 0 70.5 -28.5 t29.5 -71.5q0 -27 -12 -49l-776 -1391q-29 -51 -88 -51q-41 0 -70.5 29.5t-29.5 70.5zM1221 55q-12 24 -12 48q0 29 18 57l436 641q25 37 25 80q0 41 -30 69.5t-71 28.5h-76q-51 0 -90 -55.5t-90 -55.5q-41 0 -70.5 30t-29.5 71q0 25 10 45q84 168 270 168h76q125 0 213 -89 t88 -212q0 -104 -59 -193l-316 -465q-12 -20 11 -20h264q41 0 70.5 -29t29.5 -72q0 -41 -29.5 -70.5t-70.5 -29.5h-477q-61 0 -90 53z" />
<glyph unicode="&#xbe;" horiz-adv-x="1972" d="M119 1372q0 23 10 43q37 78 111.5 124t160.5 46h21q123 0 211 -88t88 -211v-22q0 -100 -62 -183q-14 -18 0 -34q61 -82 62 -183v-22q0 -125 -88 -213t-211 -88h-21q-186 0 -270 166q-10 23 -10 45q0 43 29.5 72.5t70.5 29.5q51 0 90 -55.5t90 -55.5h21q41 0 69.5 29 t28.5 70v22q0 41 -28.5 70t-69.5 29h-25q-43 0 -71.5 29.5t-28.5 70.5q0 43 28.5 72.5t71.5 29.5h25q41 0 69.5 29t28.5 70v22q0 41 -28.5 69.5t-69.5 28.5h-21q-51 0 -90 -57t-90 -57q-43 0 -72.5 29.5t-29.5 72.5zM496 98q0 27 14 49l776 1391q29 51 88 51q41 0 71 -28.5 t30 -71.5q0 -27 -13 -49l-778 -1391q-29 -51 -88 -51q-41 0 -70.5 29.5t-29.5 70.5zM1178 334l165 653q20 76 99 76q41 0 70.5 -29.5t29.5 -70.5q0 -12 -2 -27l-129 -506q-6 -20 16 -20h58q23 0 22 22v154q0 41 30 70.5t71 29.5t70.5 -29.5t29.5 -70.5v-154q0 -23 23 -22h20 q43 0 72.5 -30t29.5 -73q0 -41 -29.5 -70.5t-72.5 -29.5h-20q-23 0 -23 -23v-84q0 -41 -29.5 -70.5t-70.5 -29.5t-71 29.5t-30 70.5v84q0 23 -22 23h-211q-49 0 -79 39q-21 28 -21 60q0 14 4 28z" />
<glyph unicode="&#xbf;" horiz-adv-x="1177" d="M137 410q0 170 123 290l139 136q51 49 52 118v50q0 61 43 105t106 44q61 0 105.5 -44t44.5 -105v-50q0 -197 -142 -331l-139 -138q-32 -32 -32 -72q0 -12 3 -26q10 -57 66 -78q20 -8 43 -8h102q72 0 105 66q41 84 135 84q33 0 63 -15q86 -41 86 -135q0 -35 -16 -65 q-51 -106 -152.5 -170t-220.5 -64h-102q-147 0 -260 91t-144 235q-8 41 -8 82zM428 1421q0 72 49 121t121 49q70 0 120 -49t50 -121q0 -70 -50 -120t-120 -50q-72 0 -121 50t-49 120z" />
<glyph unicode="&#xc0;" horiz-adv-x="1333" d="M137 150q0 23 6 43l379 1292q33 106 144 106q113 0 145 -106l379 -1292q6 -20 6 -43q0 -61 -44 -105.5t-105 -44.5q-113 0 -144 109l-49 163q-4 12 -14 13h-346q-10 0 -15 -13l-49 -163q-31 -109 -143 -109q-61 0 -105.5 44.5t-44.5 105.5zM508 1874q0 51 36 86t85 35 q51 0 86 -35l94 -94q37 -37 37 -86q0 -51 -36 -86t-85 -35q-51 0 -86 35l-94 96q-37 35 -37 84zM573 594q-2 -10 9 -10h170q10 0 8 10l-88 301q-2 4 -6 4q-2 0 -4 -4z" />
<glyph unicode="&#xc1;" horiz-adv-x="1329" d="M135 150q0 23 6 43l379 1292q33 106 144 106q113 0 145 -106l379 -1292q6 -20 6 -43q0 -61 -44 -105.5t-106 -44.5q-113 0 -143 109l-49 163q-4 12 -14 13h-346q-10 0 -15 -13l-49 -163q-31 -109 -143 -109q-61 0 -105.5 44.5t-44.5 105.5zM498 1780q0 49 34 86l95 94 q37 35 86 35t85 -35t36 -86q0 -49 -35 -84l-97 -96q-35 -35 -84 -35q-51 0 -85.5 35t-34.5 86zM571 594q-2 -10 9 -10h170q10 0 8 10l-88 301q-2 4 -6 4q-2 0 -5 -4z" />
<glyph unicode="&#xc2;" horiz-adv-x="1331" d="M137 150q0 23 6 43l379 1290q31 109 143.5 108.5t143.5 -108.5l379 -1290q6 -20 6 -43q0 -61 -44 -105.5t-106 -44.5q-111 0 -143 106l-49 166q-2 12 -14 13h-344q-12 0 -15 -13l-49 -166q-33 -106 -143 -106q-61 0 -105.5 44.5t-44.5 105.5zM393 1776q0 49 35 84 l152 153q37 35 86 35t86 -35l151 -153q35 -35 35 -84q0 -51 -35 -86t-86 -35q-49 0 -84 35l-51 51q-16 16 -33 0l-51 -51q-35 -35 -84 -35q-51 0 -86 35t-35 86zM573 594q-4 -10 9 -10h168q12 0 8 10l-88 301q0 4 -4 4t-4 -4z" />
<glyph unicode="&#xc3;" horiz-adv-x="1333" d="M137 150q0 23 6 43l379 1292q33 106 144 106q113 0 145 -106l379 -1292q6 -20 6 -43q0 -61 -44 -105.5t-105 -44.5q-113 0 -144 109l-49 163q-4 12 -14 13h-346q-10 0 -15 -13l-49 -163q-31 -109 -143 -109q-61 0 -105.5 44.5t-44.5 105.5zM326 1780q0 49 34 86l72 69 q49 51 121 52q35 0 65 -15l125 -51q20 -8 37 8l21 21q37 37 86 37q51 0 86 -36t35 -85q0 -51 -35 -86l-72 -72q-49 -49 -121 -49q-35 0 -65 12l-125 51q-20 10 -37 -6l-23 -22q-35 -35 -84 -35q-51 0 -85.5 35t-34.5 86zM573 594q-2 -10 9 -10h170q10 0 8 10l-88 301 q-2 4 -6 4q-2 0 -4 -4z" />
<glyph unicode="&#xc4;" horiz-adv-x="1333" d="M137 150q0 23 6 43l379 1292q33 106 144 106q113 0 145 -106l379 -1292q6 -20 6 -43q0 -61 -44 -105.5t-105 -44.5q-113 0 -144 109l-49 163q-4 12 -14 13h-346q-10 0 -15 -13l-49 -163q-31 -109 -143 -109q-61 0 -105.5 44.5t-44.5 105.5zM311 1817q0 61 44 105t108 44 q61 0 105 -44t44 -105q0 -63 -44 -107.5t-105 -44.5q-63 0 -107.5 44.5t-44.5 107.5zM573 594q-2 -10 9 -10h170q10 0 8 10l-88 301q-2 4 -6 4q-2 0 -4 -4zM721 1817q0 61 44 105t105 44q63 0 107.5 -44t44.5 -105q0 -63 -44 -107.5t-108 -44.5q-61 0 -105 44.5t-44 107.5z " />
<glyph unicode="&#xc5;" horiz-adv-x="1329" d="M137 150q0 20 6 40l379 1289q31 106 142 106q113 0 143 -106l379 -1289q6 -20 6 -40q0 -61 -44 -105.5t-106 -44.5q-111 0 -143 106l-47 166q-4 10 -16 11h-342q-12 0 -17 -11l-47 -166q-33 -106 -143 -106q-61 0 -105.5 44.5t-44.5 105.5zM469 1851q0 82 57.5 139.5 t139.5 57.5q80 0 137 -57.5t57 -139.5t-57.5 -139t-136.5 -57q-82 0 -139.5 57t-57.5 139zM571 592q-2 -10 9 -10h170q10 0 8 10l-88 301q-2 2 -6 2q-2 0 -5 -2zM629 1851.5q0 -36.5 37 -36.5q35 0 34.5 36.5t-34.5 36.5q-37 0 -37 -36.5z" />
<glyph unicode="&#xc6;" horiz-adv-x="1892" d="M137 152q0 20 6 43l379 1290q33 109 146 108q111 0 143 -108l76 -262q2 -2 6 -2t4 4v219q0 61 44 105t106 44h559q61 0 105 -44t44 -105q0 -63 -44 -106.5t-105 -43.5h-400q-10 0 -10 -12v-324q0 -12 10 -12h326q61 0 105 -43t44 -106q0 -61 -44 -105.5t-105 -44.5h-326 q-10 0 -10 -10v-324q0 -12 10 -12h400q61 0 105 -44t44 -105.5t-44 -105.5t-105 -44h-559q-29 0 -72 58q-37 50 -63 50q-5 0 -9 -1l-49 165q-4 10 -14 11h-346q-10 0 -15 -11l-49 -165q-31 -106 -143 -107q-61 0 -105.5 43.5t-44.5 106.5zM573 596q-2 -10 9 -10h170 q10 0 8 10l-88 301q-2 4 -4 4q-4 0 -6 -4z" />
<glyph unicode="&#xc7;" horiz-adv-x="1179" d="M135 403v773q0 172 122 293.5t294 121.5h102q121 0 222.5 -64.5t152.5 -170.5q16 -31 16 -66q0 -94 -86 -135q-31 -14 -65 -14q-94 0 -135 86q-31 66 -105 65h-102q-47 0 -81 -33.5t-34 -82.5v-773q0 -47 34 -80.5t81 -33.5h102q74 0 105 65q41 84 135 84q35 0 65 -16 q84 -41 84 -133q0 -35 -14 -66q-78 -160 -252 -215q-20 -6 -20 -28v-119q0 -115 -81 -196t-196 -81h-102q-66 0 -113 47t-47 115t47 115t113 47h33q23 0 22 22v54q0 23 -20 30q-123 43 -200 149.5t-77 239.5z" />
<glyph unicode="&#xc8;" horiz-adv-x="1134" d="M137 150v1292q0 61 44 105t106 44h561q61 0 105 -44t44 -105.5t-44 -105.5t-105 -44h-399q-10 0 -11 -12v-324q0 -10 11 -10h323q61 0 105.5 -44t44.5 -105q0 -63 -44 -107.5t-106 -44.5h-323q-10 0 -11 -10v-324q0 -12 11 -12h399q61 0 105 -44t44 -105.5t-44 -105.5 t-105 -44h-561q-61 0 -105.5 44.5t-44.5 105.5zM399 1874q0 51 35 86t86 35q49 0 86 -35l94 -94q35 -37 35 -86q0 -51 -34.5 -86t-86.5 -35q-49 0 -86 35l-94 96q-35 35 -35 84z" />
<glyph unicode="&#xc9;" horiz-adv-x="1134" d="M137 150v1292q0 61 44 105t106 44h561q61 0 105 -44t44 -105.5t-44 -105.5t-105 -44h-399q-10 0 -11 -12v-324q0 -10 11 -10h323q61 0 105.5 -44t44.5 -105q0 -63 -44 -107.5t-106 -44.5h-323q-10 0 -11 -10v-324q0 -12 11 -12h399q61 0 105 -44t44 -105.5t-44 -105.5 t-105 -44h-561q-61 0 -105.5 44.5t-44.5 105.5zM399 1780q0 49 35 86l94 94q37 35 86 35q51 0 86 -35t35 -86q0 -49 -35 -84l-94 -96q-37 -35 -86 -35q-51 0 -86 35t-35 86z" />
<glyph unicode="&#xca;" horiz-adv-x="1134" d="M137 150v1290q0 63 44 107t108 44h557q63 0 107 -44t44 -107q0 -61 -44 -105.5t-107 -44.5h-397q-10 0 -11 -10v-324q0 -12 11 -12h323q61 0 105.5 -43t44.5 -106q0 -61 -44 -105.5t-106 -44.5h-323q-10 0 -11 -10v-324q0 -12 11 -12h397q63 0 107 -44t44 -105.5 t-44 -105.5t-107 -44h-557q-63 0 -107.5 44.5t-44.5 105.5zM295 1776q0 49 35 84l151 153q37 35 86 35t86 -35l152 -153q35 -35 35 -84q0 -51 -35 -86t-86 -35q-49 0 -84 35l-51 51q-16 16 -33 0l-51 -51q-35 -35 -84 -35q-51 0 -86 35t-35 86z" />
<glyph unicode="&#xcb;" horiz-adv-x="1136" d="M139 150v1292q0 61 44 105t106 44h559q61 0 105 -44t44 -105.5t-44 -105.5t-105 -44h-397q-12 0 -13 -12v-324q0 -10 13 -10h323q61 0 105.5 -44t44.5 -105q0 -63 -44 -107.5t-106 -44.5h-323q-12 0 -13 -10v-324q0 -12 13 -12h397q61 0 105 -44t44 -105.5t-44 -105.5 t-105 -44h-559q-61 0 -105.5 44.5t-44.5 105.5zM213 1817q0 61 44 105t108 44q61 0 105 -44t44 -105q0 -63 -44 -107.5t-105 -44.5q-63 0 -107.5 44.5t-44.5 107.5zM623 1817q0 61 44 105t105 44q63 0 107.5 -44t44.5 -105q0 -63 -44 -107.5t-108 -44.5q-61 0 -105 44.5 t-44 107.5z" />
<glyph unicode="&#xcc;" horiz-adv-x="612" d="M137 1874q0 51 36 86t85 35q51 0 86 -35l94 -94q37 -37 37 -86q0 -51 -36 -86t-85 -35q-51 0 -86 35l-94 96q-37 35 -37 84zM156 150v1292q0 61 44 105t107 44q61 0 105.5 -44t44.5 -105v-1292q0 -61 -44 -105.5t-106 -44.5q-63 0 -107 44.5t-44 105.5z" />
<glyph unicode="&#xcd;" horiz-adv-x="612" d="M137 1780q0 49 37 86l94 94q35 35 86 35q49 0 85 -35t36 -86q0 -49 -37 -84l-94 -96q-35 -35 -86 -35q-49 0 -85 35t-36 86zM156 150v1292q0 61 44 105t107 44q61 0 105.5 -44t44.5 -105v-1292q0 -61 -44 -105.5t-106 -44.5q-63 0 -107 44.5t-44 105.5z" />
<glyph unicode="&#xce;" horiz-adv-x="786" d="M121 1776q0 49 35 84l151 153q37 35 86 35t86 -35l152 -153q35 -35 35 -84q0 -51 -35 -86t-86 -35q-49 0 -84 35l-51 51q-16 16 -33 0l-51 -51q-35 -35 -84 -35q-51 0 -86 35t-35 86zM244 150v1290q0 63 44 107t105.5 44t105.5 -44t44 -107v-1290q0 -61 -44 -105.5 t-105.5 -44.5t-105.5 44.5t-44 105.5z" />
<glyph unicode="&#xcf;" horiz-adv-x="985" d="M137 1817q0 61 44 105t108 44q61 0 105 -44t44 -105q0 -63 -44 -107.5t-105 -44.5q-63 0 -107.5 44.5t-44.5 107.5zM342 150v1292q0 61 44 105t108 44q61 0 105 -44t44 -105v-1292q0 -61 -44 -105.5t-105 -44.5q-63 0 -107.5 44.5t-44.5 105.5zM547 1817q0 61 44 105 t105 44q63 0 107.5 -44t44.5 -105q0 -63 -44 -107.5t-108 -44.5q-61 0 -105 44.5t-44 107.5z" />
<glyph unicode="&#xd0;" horiz-adv-x="1454" d="M137 797q0 63 44 106t106 43h75q23 0 23 25v473q0 61 44 105t106 44h368q170 0 292 -121.5t122 -293.5v-762q0 -170 -122 -292t-292 -122h-368q-61 0 -105.5 44t-44.5 106v473q0 23 -23 22h-75q-61 0 -105.5 44.5t-44.5 105.5zM684 313q0 -12 12 -12h207q47 0 81 34 t34 81v762q0 49 -34 82.5t-81 33.5h-207q-12 0 -12 -12v-311q0 -25 23 -25h55q61 0 105 -43t44 -106q0 -61 -44 -105.5t-105 -44.5h-55q-23 0 -23 -22v-312z" />
<glyph unicode="&#xd1;" d="M139 150v1292q0 61 44 105t106 44q92 0 135 -84l340 -694q2 -4 4 -2q4 0 4 4v627q0 61 44 105t105.5 44t105.5 -44t44 -105v-1292q0 -61 -44 -105.5t-105 -44.5q-92 0 -136 84l-340 694q-2 4 -4 2q-4 0 -4 -4v-626q0 -61 -44 -105.5t-105.5 -44.5t-105.5 44.5t-44 105.5z M264 1780q0 49 35 86l72 69q49 51 121 52q35 0 65 -15l125 -51q20 -8 37 8l20 21q37 37 86 37q51 0 86 -36t35 -85q0 -51 -35 -86l-71 -70q-49 -51 -121 -51q-35 0 -66 12l-125 51q-20 10 -36 -6l-21 -22q-37 -35 -86 -35q-51 0 -86 36t-35 85z" />
<glyph unicode="&#xd2;" d="M139 414v770q0 172 122 292.5t292 120.5h104q170 0 292 -120.5t122 -292.5v-770q0 -170 -122 -292t-292 -122h-104q-170 0 -292 122t-122 292zM438 414q0 -47 34 -81t81 -34h104q47 0 81 34t34 81v770q0 47 -33.5 80.5t-81.5 33.5h-104q-47 0 -81 -33.5t-34 -80.5v-770z M438 1876q0 49 35 84t84 35q51 0 86 -35l94 -94q35 -35 35 -86q0 -49 -35 -85t-84 -36q-51 0 -86 37l-94 94q-35 35 -35 86z" />
<glyph unicode="&#xd3;" d="M139 414v770q0 172 122 292.5t292 120.5h104q170 0 292 -120.5t122 -292.5v-770q0 -170 -122 -292t-292 -122h-104q-170 0 -292 122t-122 292zM436 1780q0 51 37 86l94 94q35 35 86 35q49 0 85 -35t36 -84q0 -51 -37 -86l-94 -94q-35 -37 -86 -37q-49 0 -85 36t-36 85z M438 414q0 -47 34 -81t81 -34h104q47 0 81 34t34 81v770q0 47 -33.5 80.5t-81.5 33.5h-104q-47 0 -81 -33.5t-34 -80.5v-770z" />
<glyph unicode="&#xd4;" d="M139 414v770q0 170 122 291.5t292 121.5h102q172 0 294 -121.5t122 -291.5v-770q0 -172 -122 -293t-294 -121h-102q-170 0 -292 121t-122 293zM332 1775.5q0 49.5 37 86.5l151 151q35 35 84 35q51 0 86 -35l152 -151q35 -35 35 -81q0 -54 -35 -90t-84 -36q-51 0 -86 35 l-51 51q-6 6 -17 6q-8 0 -14 -6l-51 -51q-35 -35 -86 -35q-49 0 -85 35.5t-36 85zM438 414q0 -47 34 -81t81 -34h102q49 0 83 34t34 81v770q0 47 -33.5 80.5t-83.5 33.5h-102q-47 0 -81 -33.5t-34 -80.5v-770z" />
<glyph unicode="&#xd5;" d="M139 414v770q0 172 122 292.5t292 120.5h104q170 0 292 -120.5t122 -292.5v-770q0 -170 -122 -292t-292 -122h-104q-170 0 -292 122t-122 292zM264 1780q0 51 35 86l72 69q49 51 121 52q35 0 65 -15l125 -49q20 -10 37 6l20 23q37 35 86 35t85 -36t36 -85t-35 -86 l-71 -70q-49 -51 -121 -51q-35 0 -66 14l-125 51q-20 8 -36 -8l-21 -20q-37 -37 -86 -37t-85 36t-36 85zM438 414q0 -47 34 -81t81 -34h104q47 0 81 34t34 81v770q0 47 -33.5 80.5t-81.5 33.5h-104q-47 0 -81 -33.5t-34 -80.5v-770z" />
<glyph unicode="&#xd6;" d="M139 414v770q0 172 122 292.5t292 120.5h104q170 0 292 -120.5t122 -292.5v-770q0 -170 -122 -292t-292 -122h-104q-170 0 -292 122t-122 292zM250 1817q0 61 44 105t107 44q61 0 105.5 -44t44.5 -105q0 -63 -44 -107.5t-106 -44.5q-63 0 -107 44.5t-44 107.5zM438 414 q0 -47 34 -81t81 -34h104q47 0 81 34t34 81v770q0 47 -33.5 80.5t-81.5 33.5h-104q-47 0 -81 -33.5t-34 -80.5v-770zM659 1817q0 61 44.5 105t105.5 44q63 0 107.5 -44t44.5 -105q0 -63 -44.5 -107.5t-107.5 -44.5q-61 0 -105.5 44.5t-44.5 107.5z" />
<glyph unicode="&#xd8;" horiz-adv-x="1267" d="M137 -20q0 31 13 59l67 158q4 10 -2 20q-47 92 -47 195v772q0 172 122 293.5t292 121.5h104q53 0 107 -16q10 -2 16 8l35 82q37 90 137 90q31 0 57 -10q92 -39 92 -139q0 -29 -12 -58l-67 -159q-4 -10 2 -21q47 -90 47 -192v-772q0 -172 -122 -294t-292 -122h-104 q-53 0 -107 14q-12 4 -16 -6l-35 -82q-37 -92 -137 -92q-31 0 -58 12q-92 40 -92 138zM467 809q0 -2 4 -4q4 0 4 4l205 479q4 10 -8 10h-90q-47 0 -81 -33.5t-34 -80.5v-375zM588 307q-4 -12 8 -12h90q47 0 81 35t34 82v372q0 4 -4 7q-4 0 -4 -5z" />
<glyph unicode="&#xd9;" d="M139 414v1030q0 61 44 105t105.5 44t105.5 -44t44 -105v-1030q0 -47 34 -81t81 -34h104q47 0 81 34t34 81v1030q0 61 44 105t105.5 44t105.5 -44t44 -105v-1030q0 -170 -122 -292t-292 -122h-104q-170 0 -292 122t-122 292zM438 1876q0 49 35 84t84 35q51 0 86 -35 l94 -94q35 -35 35 -86q0 -49 -35 -85t-84 -36q-51 0 -86 37l-94 94q-35 35 -35 86z" />
<glyph unicode="&#xda;" d="M139 414v1030q0 61 44 105t105.5 44t105.5 -44t44 -105v-1030q0 -47 34 -81t81 -34h104q47 0 81 34t34 81v1030q0 61 44 105t105.5 44t105.5 -44t44 -105v-1030q0 -170 -122 -292t-292 -122h-104q-170 0 -292 122t-122 292zM436 1780q0 51 37 86l94 94q35 35 86 35 q49 0 85 -35t36 -84q0 -51 -37 -86l-94 -94q-35 -37 -86 -37q-49 0 -85 36t-36 85z" />
<glyph unicode="&#xdb;" d="M139 414v1028q0 61 44 105t106 44q63 0 106 -44t43 -105v-1028q0 -47 34 -81t83 -34h102q47 0 81 34t34 81v1028q0 61 43 105t107 44q61 0 105 -44t44 -105v-1028q0 -172 -122 -293t-292 -121h-102q-172 0 -294 121t-122 293zM334 1775.5q0 49.5 35 86.5l151 151 q35 35 86 35q49 0 84 -35l152 -151q37 -37 37 -86.5t-36 -85t-85 -35.5q-51 0 -86 35l-51 51q-6 6 -15 6q-10 0 -16 -6l-51 -51q-35 -35 -86 -35q-49 0 -84 35.5t-35 85z" />
<glyph unicode="&#xdc;" d="M139 414v1030q0 61 44 105t105.5 44t105.5 -44t44 -105v-1030q0 -47 34 -81t81 -34h104q47 0 81 34t34 81v1030q0 61 44 105t105.5 44t105.5 -44t44 -105v-1030q0 -170 -122 -292t-292 -122h-104q-170 0 -292 122t-122 292zM250 1817q0 61 44 105t107 44q61 0 105.5 -44 t44.5 -105q0 -63 -44 -107.5t-106 -44.5q-63 0 -107 44.5t-44 107.5zM659 1817q0 61 44.5 105t105.5 44q63 0 107.5 -44t44.5 -105q0 -63 -44.5 -107.5t-107.5 -44.5q-61 0 -105.5 44.5t-44.5 107.5z" />
<glyph unicode="&#xdd;" d="M139 1442q0 94 84 135q31 14 66 14q92 0 133 -84l178 -360q6 -10 10 0l178 360q41 84 134 84q35 0 65 -14q84 -41 84 -135q0 -35 -14 -66l-299 -608q-2 -6 -2 -12v-606q0 -61 -44 -105.5t-106 -44.5q-63 0 -107 44t-44 106v606q0 6 -2 12l-299 608q-15 31 -15 66z M436 1780q0 49 37 86l94 94q35 35 86 35q49 0 85 -35t36 -86q0 -49 -37 -84l-94 -96q-35 -35 -86 -35q-49 0 -85 35t-36 86z" />
<glyph unicode="&#xde;" horiz-adv-x="1128" d="M137 152v1292q0 61 44 105t106 44q63 0 106 -44t43 -105v-45q0 -23 25 -23h114q172 0 294 -121.5t122 -293.5v-326q0 -172 -121.5 -294t-294.5 -122h-114q-25 0 -25 -22v-45q0 -61 -43 -105.5t-106 -44.5q-61 0 -105.5 44.5t-44.5 105.5zM438 530q0 -12 11 -12h126 q47 0 82 34t35 83v326q0 47 -34.5 80.5t-82.5 33.5h-126q-10 0 -11 -10v-535z" />
<glyph unicode="&#xdf;" horiz-adv-x="1427" d="M137 162v1075q0 145 103.5 248.5t251.5 103.5h299q135 0 230 -95t95 -230q0 -121 -86 -215q-14 -16 4 -25q117 -51 186.5 -156.5t69.5 -232.5v-283q0 -145 -103.5 -248.5t-250.5 -103.5h-199q-68 0 -115 47t-47 115q0 66 47.5 113t114.5 47h199q31 0 31 30v283 q0 76 -70 98l-125 41q-82 27 -130 95q-46 66 -46 148q0 172 164 232q6 4 6 11q-2 8 -10 8h-264q-31 0 -31 -31v-1075q0 -66 -47 -114t-115 -48t-115 48t-47 114z" />
<glyph unicode="&#xe0;" horiz-adv-x="1110" d="M137 416v18q0 170 122 292t292 122h8q51 0 105 -14q2 2 4 6q-27 78 -109 78h-8q-37 0 -68 -21q-39 -29 -86 -29q-78 0 -123 62q-27 41 -26 88q0 78 61 121q109 80 242 80h8q170 0 292 -122t122 -294v-387q0 -172 -122 -293t-292 -121h-8q-170 0 -292 121t-122 293z M387 1516q0 49 35 84.5t86 35.5q49 0 86 -37l94 -94q35 -35 35 -86q0 -49 -35 -85t-86 -36q-49 0 -86 37l-94 95q-35 35 -35 86zM436 416q0 -47 34 -81t81 -34h8q47 0 81 34t34 81v18q0 47 -34 81t-81 34h-8q-47 0 -81 -34t-34 -81v-18z" />
<glyph unicode="&#xe1;" horiz-adv-x="1110" d="M137 416v18q0 170 122 292t292 122h8q51 0 105 -14q2 2 4 6q-27 78 -109 78h-8q-37 0 -68 -21q-39 -29 -86 -29q-78 0 -123 62q-27 41 -26 88q0 78 61 121q109 80 242 80h8q170 0 292 -122t122 -294v-387q0 -172 -122 -293t-292 -121h-8q-170 0 -292 121t-122 293z M387 1419q0 51 35 86l94 94q37 37 86 37q51 0 86 -35.5t35 -84.5q0 -51 -35 -86l-94 -95q-37 -37 -86 -37q-51 0 -86 36t-35 85zM436 416q0 -47 34 -81t81 -34h8q47 0 81 34t34 81v18q0 47 -34 81t-81 34h-8q-47 0 -81 -34t-34 -81v-18z" />
<glyph unicode="&#xe2;" horiz-adv-x="1110" d="M137 416v18q0 170 122 292t292 122h8q51 0 105 -14q2 2 4 6q-27 78 -109 78h-8q-37 0 -68 -21q-39 -29 -86 -29q-78 0 -123 62q-27 41 -26 88q0 78 61 121q109 80 242 80h8q170 0 292 -122t122 -294v-387q0 -172 -122 -293t-292 -121h-8q-170 0 -292 121t-122 293z M283 1417q0 49 34 84l152 154q37 35 86 35t86 -35l152 -154q35 -35 34 -84q0 -51 -34.5 -86t-85.5 -35q-49 0 -84 35l-52 51q-16 16 -32 0l-52 -51q-35 -35 -84 -35q-51 0 -85.5 35t-34.5 86zM436 416q0 -47 34 -81t81 -34h8q47 0 81 34t34 81v18q0 47 -34 81t-81 34h-8 q-47 0 -81 -34t-34 -81v-18z" />
<glyph unicode="&#xe3;" horiz-adv-x="1110" d="M137 416v18q0 170 122 292t292 122h8q51 0 105 -14q2 2 4 6q-27 78 -109 78h-8q-37 0 -68 -21q-39 -29 -86 -29q-78 0 -123 62q-27 41 -26 88q0 78 61 121q109 80 242 80h8q170 0 292 -122t122 -294v-387q0 -172 -122 -293t-292 -121h-8q-170 0 -292 121t-122 293z M213 1419q0 51 37 86l69 72q51 49 121 49q35 0 68 -12l123 -51q23 -10 37 6l22 22q35 35 86 35q49 0 85 -36t36 -85t-37 -86l-69 -69q-51 -51 -121 -52q-35 0 -68 15l-123 51q-23 8 -39 -8l-20 -21q-35 -37 -86 -37q-49 0 -85 36t-36 85zM436 416q0 -47 34 -81t81 -34h8 q47 0 81 34t34 81v18q0 47 -34 81t-81 34h-8q-47 0 -81 -34t-34 -81v-18z" />
<glyph unicode="&#xe4;" horiz-adv-x="1110" d="M137 416v18q0 170 122 292t292 122h8q51 0 105 -14q2 2 4 6q-27 78 -109 78h-8q-37 0 -68 -21q-39 -29 -86 -29q-78 0 -123 62q-27 41 -26 88q0 78 61 121q109 80 242 80h8q170 0 292 -122t122 -294v-387q0 -172 -122 -293t-292 -121h-8q-170 0 -292 121t-122 293z M199 1449.5q0 63.5 45 108t106 44.5q63 0 107.5 -44.5t44.5 -108t-44 -107.5t-108 -44q-61 0 -106 44t-45 107.5zM436 416q0 -47 34 -81t81 -34h8q47 0 81 34t34 81v18q0 47 -34 81t-81 34h-8q-47 0 -81 -34t-34 -81v-18zM608 1449.5q0 63.5 44 108t108 44.5q61 0 106 -44.5 t45 -108t-45 -107.5t-106 -44q-63 0 -107.5 44t-44.5 107.5z" />
<glyph unicode="&#xe5;" horiz-adv-x="1110" d="M137 416v18q0 170 122 292t292 122h8q51 0 105 -14q2 2 4 6q-27 78 -109 78h-8q-37 0 -68 -21q-39 -29 -86 -29q-78 0 -123 62q-27 41 -26 88q0 78 61 121q109 80 242 80h8q170 0 292 -122t122 -294v-387q0 -172 -122 -293t-292 -121h-8q-170 0 -292 121t-122 293z M358 1499q0 82 57.5 139.5t139.5 57.5t139.5 -57.5t57.5 -139.5t-57.5 -140.5t-139.5 -58.5t-139.5 58.5t-57.5 140.5zM436 416q0 -47 34 -81t81 -34h8q47 0 81 34t34 81v18q0 47 -34 81t-81 34h-8q-47 0 -81 -34t-34 -81v-18zM518 1499q0 -37 37 -37t37 37q0 35 -37 35 t-37 -35z" />
<glyph unicode="&#xe6;" horiz-adv-x="1650" d="M139 418v16q0 172 122 294t294 122h6q51 0 105 -14q2 2 4 6q-27 78 -109 78h-6q-39 0 -68 -21q-39 -29 -88 -29q-76 0 -120 62q-29 39 -29 88q0 76 61 121q109 78 244 78h6q133 0 244 -78q16 -14 35 0q111 84 250 84h6q172 0 293.5 -122t121.5 -294v-199q0 -61 -44 -105 t-105 -44h-363q-23 0 -22 -25v-18q0 4 -2 -17q4 -43 36.5 -73.5t78.5 -30.5h6q59 0 94 45q43 61 119 61q49 0 90 -30q59 -45 59 -121q0 -49 -31 -90q-125 -164 -331 -164h-6q-139 0 -250 84q-18 12 -35 0q-109 -80 -244 -80h-6q-172 0 -294 122t-122 294zM438 418 q0 -47 34 -81t83 -34h6q43 0 76 28.5t39 71.5v5l-2 4v41q-6 43 -38 70.5t-75 27.5h-6q-49 0 -83 -34t-34 -83v-16zM975 821q2 -23 2 -16v-21q0 -25 22 -24h207q6 0 6 6v43q0 49 -33.5 83t-82.5 34h-6q-45 0 -78 -31t-37 -74z" />
<glyph unicode="&#xe7;" horiz-adv-x="1079" d="M137 408v399q0 170 122 292t294 122h6q115 0 212 -58.5t153 -156.5q18 -35 18 -72q0 -90 -78 -133q-35 -18 -71 -19q-90 0 -134 78q-33 61 -100 62h-6q-49 0 -83 -34t-34 -81v-399q0 -47 34 -81t83 -34h6q70 0 103 61q41 78 131 78q37 0 71 -18q78 -41 78 -131 q0 -37 -18 -72q-63 -117 -185 -176q-20 -10 -20 -33v-123q0 -115 -81 -194.5t-194 -79.5h-102q-68 0 -115 47t-47 112q0 68 47 115t115 47h33q23 0 22 23v51q0 23 -20 33q-109 51 -174.5 151.5t-65.5 223.5z" />
<glyph unicode="&#xe8;" horiz-adv-x="1110" d="M137 414v397q0 172 122 293t292 121h8q170 0 292 -121t122 -293v-199q0 -63 -44 -106t-106 -43h-381q-6 0 -6 -6v-43q0 -47 34 -81t81 -34h8q57 0 92 45q45 59 119 59q49 0 90 -28q59 -45 60 -121q0 -49 -31 -88q-125 -166 -330 -166h-8q-170 0 -292 122t-122 292z M387 1516q0 51 35 85.5t86 34.5q49 0 84 -34l96 -95q35 -37 35 -86q0 -51 -35 -86t-86 -35q-49 0 -84 35l-96 97q-35 35 -35 84zM436 766q0 -4 6 -4h226q6 0 6 4v45q0 47 -34 81t-81 34h-8q-47 0 -81 -34t-34 -81v-45z" />
<glyph unicode="&#xe9;" horiz-adv-x="1110" d="M137 414v397q0 172 122 293t292 121h8q170 0 292 -121t122 -293v-199q0 -63 -44 -106t-106 -43h-381q-6 0 -6 -6v-43q0 -47 34 -81t81 -34h8q57 0 92 45q45 59 119 59q49 0 90 -28q59 -45 60 -121q0 -49 -31 -88q-125 -166 -330 -166h-8q-170 0 -292 122t-122 292z M387 1421q0 49 35 86l96 95q35 35 84 34q51 0 86 -34.5t35 -85.5q0 -49 -35 -84l-96 -97q-35 -35 -84 -35q-51 0 -86 35t-35 86zM436 766q0 -4 6 -4h226q6 0 6 4v45q0 47 -34 81t-81 34h-8q-47 0 -81 -34t-34 -81v-45z" />
<glyph unicode="&#xea;" horiz-adv-x="1107" d="M137 414v397q0 172 121 293t293 121h6q172 0 293 -121t121 -293v-199q0 -63 -43 -106t-107 -43h-381q-4 0 -4 -6v-43q0 -47 34 -81t81 -34h6q57 0 92 45q45 59 119 59q51 0 90 -28q59 -45 60 -121q0 -49 -29 -88q-125 -166 -332 -166h-6q-172 0 -293 122t-121 292z M281 1417q0 51 36 86l152 152q35 35 86 35q49 0 84 -35l152 -152q37 -35 36 -86q0 -49 -35.5 -85t-84.5 -36q-51 0 -86 37l-52 49q-6 8 -14 9q-10 0 -16 -9l-52 -49q-35 -37 -86 -37q-49 0 -84.5 36t-35.5 85zM436 766q0 -4 4 -4h228q4 0 4 4v45q0 47 -34 81t-81 34h-6 q-47 0 -81 -34t-34 -81v-45z" />
<glyph unicode="&#xeb;" horiz-adv-x="1110" d="M137 414v397q0 172 122 293t292 121h8q170 0 292 -121t122 -293v-199q0 -63 -44 -106t-106 -43h-381q-6 0 -6 -6v-43q0 -47 34 -81t81 -34h8q57 0 92 45q45 59 119 59q49 0 90 -28q59 -45 60 -121q0 -49 -31 -88q-125 -166 -330 -166h-8q-170 0 -292 122t-122 292z M201 1452q0 61 44 105.5t105 44.5q63 0 107.5 -44.5t44.5 -105.5q0 -63 -44 -107.5t-108 -44.5q-61 0 -105 44.5t-44 107.5zM436 766q0 -4 6 -4h226q6 0 6 4v45q0 47 -34 81t-81 34h-8q-47 0 -81 -34t-34 -81v-45zM608 1452q0 61 44 105.5t108 44.5q61 0 105 -44.5 t44 -105.5q0 -63 -44 -107.5t-105 -44.5q-63 0 -107.5 44.5t-44.5 107.5z" />
<glyph unicode="&#xec;" horiz-adv-x="612" d="M137 1516q0 49 36 84.5t85 35.5q51 0 86 -37l94 -94q37 -35 37 -86q0 -49 -36 -85t-85 -36q-51 0 -86 37l-94 95q-37 35 -37 86zM156 152v888q0 63 44 106.5t107 43.5q61 0 105.5 -43t44.5 -107v-888q0 -63 -44 -106.5t-106 -43.5q-63 0 -107 43.5t-44 106.5z" />
<glyph unicode="&#xed;" horiz-adv-x="612" d="M137 1419q0 51 37 86l94 94q35 37 86 37q49 0 85 -35.5t36 -84.5q0 -51 -37 -86l-94 -95q-35 -37 -86 -37q-49 0 -85 36t-36 85zM156 152v888q0 63 44 106.5t107 43.5q61 0 105.5 -43t44.5 -107v-888q0 -63 -44 -106.5t-106 -43.5q-63 0 -107 43.5t-44 106.5z" />
<glyph unicode="&#xee;" horiz-adv-x="786" d="M121 1417q0 49 35 84l151 154q37 35 86 35t86 -35l152 -154q35 -35 35 -84q0 -51 -35 -86t-86 -35q-49 0 -84 35l-51 51q-16 16 -33 0l-51 -51q-35 -35 -84 -35q-51 0 -86 35t-35 86zM244 152v888q0 63 44 106.5t105.5 43.5t105.5 -43t44 -107v-888q0 -63 -44 -106.5 t-105.5 -43.5t-105.5 43.5t-44 106.5z" />
<glyph unicode="&#xef;" horiz-adv-x="985" d="M137 1449.5q0 63.5 44 108t108 44.5q61 0 105 -44.5t44 -108t-44 -107.5t-105 -44q-63 0 -107.5 44t-44.5 107.5zM342 152v888q0 63 44 106.5t108 43.5q61 0 105 -43t44 -107v-888q0 -63 -44 -106.5t-105 -43.5q-63 0 -107.5 43.5t-44.5 106.5zM547 1449.5q0 63.5 44 108 t105 44.5q63 0 107.5 -44.5t44.5 -108t-44 -107.5t-108 -44q-61 0 -105 44t-44 107.5z" />
<glyph unicode="&#xf0;" horiz-adv-x="1191" d="M137 449v88q0 184 131 315t316 131h8q55 0 113 -14q10 -2 10 8v41q0 23 -10 16q-39 -31 -89 -30q-61 0 -105 44t-44 105t45 107l25 24q8 8 0 16l-17 17q-47 47 -47 113q0 68 47 114.5t115 46.5q66 0 113 -47l16 -16q8 -8 16 0l19 20q45 43 106.5 43t105.5 -44t44 -105.5 t-43 -106.5l-37 -35q-8 -8 -2 -18q66 -125 65 -264v-569q0 -184 -131 -315.5t-315 -131.5h-8q-184 0 -315.5 131.5t-131.5 315.5zM459 449q0 -51 36.5 -87t88.5 -36h8q51 0 87 35.5t36 87.5v88q0 51 -36 88t-87 37h-8q-51 0 -88 -37t-37 -88v-88z" />
<glyph unicode="&#xf1;" horiz-adv-x="1112" d="M137 152v651q0 172 122 294t294 122h6q172 0 294 -122t122 -294v-651q0 -63 -44 -106.5t-106 -43.5q-63 0 -106 43t-43 107v651q0 49 -34 83t-83 34h-6q-49 0 -83 -34t-34 -83v-651q0 -63 -43 -106.5t-106 -43.5q-61 0 -105.5 43.5t-44.5 106.5zM215 1419q0 51 35 86 l72 72q49 49 120 49q35 0 66 -12l125 -51q20 -10 37 6l22 22q35 35 84 35q51 0 86 -36t35 -85t-35 -86l-71 -69q-49 -51 -121 -52q-35 0 -66 15l-125 51q-20 8 -37 -8l-22 -21q-35 -37 -84 -37q-51 0 -86 36t-35 85z" />
<glyph unicode="&#xf2;" horiz-adv-x="1110" d="M137 414v397q0 172 122 293t292 121h8q170 0 292 -121t122 -293v-397q0 -170 -122 -292t-292 -122h-8q-170 0 -292 122t-122 292zM387 1516q0 51 35 85.5t86 34.5q49 0 84 -34l96 -95q35 -37 35 -86t-35 -85t-86 -36q-49 0 -86 35l-94 97q-35 35 -35 84zM436 414 q0 -47 34 -81t81 -34h8q47 0 81 34t34 81v397q0 47 -34 81t-81 34h-8q-47 0 -81 -34t-34 -81v-397z" />
<glyph unicode="&#xf3;" horiz-adv-x="1110" d="M137 414v397q0 172 122 293t292 121h8q170 0 292 -121t122 -293v-397q0 -170 -122 -292t-292 -122h-8q-170 0 -292 122t-122 292zM387 1421q0 49 35 86l96 95q35 35 84 34q51 0 86 -34.5t35 -85.5q0 -49 -35 -84l-96 -97q-35 -35 -84 -35q-51 0 -86 35t-35 86zM436 414 q0 -47 34 -81t81 -34h8q47 0 81 34t34 81v397q0 47 -34 81t-81 34h-8q-47 0 -81 -34t-34 -81v-397z" />
<glyph unicode="&#xf4;" horiz-adv-x="1110" d="M137 414v397q0 172 122 293t292 121h8q170 0 292 -121t122 -293v-397q0 -170 -122 -292t-292 -122h-8q-170 0 -292 122t-122 292zM283 1417q0 51 34 86l152 152q37 35 86 35t86 -35l152 -152q35 -35 34 -86q0 -49 -34.5 -85t-85.5 -36q-49 0 -84 37l-52 49q-16 16 -32 0 l-52 -49q-35 -37 -84 -37q-51 0 -85.5 36t-34.5 85zM436 414q0 -47 34 -81t81 -34h8q47 0 81 34t34 81v397q0 47 -34 81t-81 34h-8q-47 0 -81 -34t-34 -81v-397z" />
<glyph unicode="&#xf5;" horiz-adv-x="1110" d="M137 414v397q0 172 122 293t292 121h8q170 0 292 -121t122 -293v-397q0 -170 -122 -292t-292 -122h-8q-170 0 -292 122t-122 292zM215 1421q0 49 35 86l69 70q51 51 121 51q35 0 68 -14l123 -51q23 -8 37 8l22 20q35 35 86 35q49 0 84 -35t35 -84q0 -51 -35 -86l-69 -71 q-51 -49 -121 -50q-35 0 -68 13l-123 51q-23 10 -37 -6l-22 -23q-35 -35 -86 -35q-49 0 -84 36t-35 85zM436 414q0 -47 34 -81t81 -34h8q47 0 81 34t34 81v397q0 47 -34 81t-81 34h-8q-47 0 -81 -34t-34 -81v-397z" />
<glyph unicode="&#xf6;" horiz-adv-x="1110" d="M137 414v397q0 172 122 293t292 121h8q170 0 292 -121t122 -293v-397q0 -170 -122 -292t-292 -122h-8q-170 0 -292 122t-122 292zM201 1452q0 61 44 105.5t105 44.5q63 0 107.5 -44.5t44.5 -105.5q0 -63 -44 -107.5t-108 -44.5q-61 0 -105 44.5t-44 107.5zM436 414 q0 -47 34 -81t81 -34h8q47 0 81 34t34 81v397q0 47 -34 81t-81 34h-8q-47 0 -81 -34t-34 -81v-397zM608 1452q0 61 44 105.5t108 44.5q61 0 105 -44.5t44 -105.5q0 -63 -44 -107.5t-105 -44.5q-63 0 -107.5 44.5t-44.5 107.5z" />
<glyph unicode="&#xf7;" horiz-adv-x="1048" d="M137 594q0 63 44 106t106 43h475q61 0 105 -43t44 -106q0 -61 -44 -105.5t-105 -44.5h-475q-61 0 -105.5 44.5t-44.5 105.5zM354 207q0 70 50.5 120t120 50t119.5 -50.5t50 -119.5q0 -72 -50 -121t-119.5 -49t-120 49t-50.5 121zM354 983q0 70 50.5 120t120 50t119.5 -50 t50 -120q0 -72 -50 -121t-119.5 -49t-120 49t-50.5 121z" />
<glyph unicode="&#xf8;" horiz-adv-x="1484" d="M135 123q0 61 45 104l53 54q6 8 3 18q-74 131 -74 281q0 240 170 409.5t409 169.5q150 0 281 -74q10 -4 18 5l54 51q43 45 106 45q61 0 105.5 -44t44.5 -106q0 -63 -45 -106l-54 -53q-6 -8 -2 -17q74 -133 74 -280q0 -240 -170 -411t-412 -171q-147 0 -278 74 q-10 6 -19 -2l-53 -54q-43 -43 -106 -43q-61 0 -105.5 43.5t-44.5 106.5zM485 580q0 -14 1 -28.5t10 -6.5l280 280q8 8 -2 11q-16 2 -33 2q-106 0 -181 -76t-75 -182zM709 334q-3 -3 -4 -6q0 -4 9 -4q13 -2 27 -2q109 0 183.5 75.5t74.5 182.5q0 14 -2 30q0 6 -2 6t-6 -4z " />
<glyph unicode="&#xf9;" horiz-adv-x="1110" d="M137 414v657q0 61 44 105.5t105.5 44.5t105.5 -44t44 -106v-657q0 -47 34 -81t81 -34h8q47 0 81 34t34 81v657q0 61 44 105.5t105.5 44.5t105.5 -44t44 -106v-657q0 -170 -122 -292t-292 -122h-8q-170 0 -292 122t-122 292zM387 1516q0 51 35 85.5t86 34.5q49 0 86 -34 l94 -95q35 -37 35 -86t-35 -85t-86 -36q-49 0 -84 35l-96 97q-35 35 -35 84z" />
<glyph unicode="&#xfa;" horiz-adv-x="1110" d="M137 414v657q0 61 44 105.5t105.5 44.5t105.5 -44t44 -106v-657q0 -47 34 -81t81 -34h8q47 0 81 34t34 81v657q0 61 44 105.5t105.5 44.5t105.5 -44t44 -106v-657q0 -170 -122 -292t-292 -122h-8q-170 0 -292 122t-122 292zM387 1421q0 49 35 86l96 95q35 35 84 34 q51 0 86 -34.5t35 -85.5q0 -49 -35 -84l-96 -97q-35 -35 -84 -35q-51 0 -86 35t-35 86z" />
<glyph unicode="&#xfb;" horiz-adv-x="1110" d="M137 414v657q0 61 44 105.5t105.5 44.5t105.5 -44t44 -106v-657q0 -47 34 -81t81 -34h8q47 0 81 34t34 81v657q0 61 44 105.5t105.5 44.5t105.5 -44t44 -106v-657q0 -170 -122 -292t-292 -122h-8q-170 0 -292 122t-122 292zM283 1417q0 51 34 86l152 152q37 35 86 35 t86 -35l152 -152q35 -35 34 -86q0 -49 -34.5 -85t-85.5 -36q-49 0 -84 37l-52 49q-16 16 -32 0l-52 -49q-35 -37 -84 -37q-51 0 -85.5 36t-34.5 85z" />
<glyph unicode="&#xfc;" horiz-adv-x="1110" d="M137 414v657q0 61 44 105.5t105.5 44.5t105.5 -44t44 -106v-657q0 -47 34 -81t81 -34h8q47 0 81 34t34 81v657q0 61 44 105.5t105.5 44.5t105.5 -44t44 -106v-657q0 -170 -122 -292t-292 -122h-8q-170 0 -292 122t-122 292zM201 1452q0 61 44 105.5t105 44.5 q63 0 107.5 -44.5t44.5 -105.5q0 -63 -44 -107.5t-108 -44.5q-61 0 -105 44.5t-44 107.5zM608 1452q0 61 44 105.5t108 44.5q61 0 105 -44.5t44 -105.5q0 -63 -44 -107.5t-105 -44.5q-63 0 -107.5 44.5t-44.5 107.5z" />
<glyph unicode="&#xfd;" horiz-adv-x="1112" d="M137 1071q0 61 44 105.5t106 44.5q113 0 143 -109l121 -412q2 -4 6 -4q2 0 4 4l121 412q31 109 143 109q61 0 105.5 -44t44.5 -106q0 -23 -6 -43l-326 -1112q-31 -109 -127 -195q-102 -94 -211 -94q-61 0 -105 44t-44 106q0 51 32.5 93t83.5 52q66 16 84 80l41 141 q2 8 0 17l-254 868q-6 20 -6 43zM436 1466q0 49 37 86l94 95q35 35 86 34q49 0 85 -34.5t36 -85.5q0 -49 -37 -84l-94 -97q-35 -35 -86 -34q-49 0 -85 34.5t-36 85.5z" />
<glyph unicode="&#xfe;" horiz-adv-x="1110" d="M137 152v1292q0 61 43 105t107 44q61 0 105 -44t44 -105v-27q0 -23 23 -16q45 10 92 10h8q170 0 292 -122t122 -294v-397q0 -172 -121 -293t-293 -121h-8q-47 0 -92 11q-23 4 -23 -19v-24q0 -61 -44 -105.5t-105 -44.5q-63 0 -106.5 44.5t-43.5 105.5zM436 598 q0 -47 34 -81t81 -34h8q47 0 81 34t34 81v397q0 49 -34 83t-81 34h-8q-47 0 -81 -34t-34 -83v-397z" />
<glyph unicode="&#xff;" horiz-adv-x="1110" d="M137 1069q0 61 44 105.5t106 44.5q113 0 143 -109l121 -412q0 -2 4 -2t4 2l121 412q31 109 143 109q61 0 105.5 -44.5t44.5 -105.5q0 -23 -6 -43l-324 -1110q-33 -109 -129 -197q-102 -92 -209 -92q-63 0 -106 44t-43 106q0 51 31.5 92t82.5 53q68 14 86 78l41 143 q2 6 0 15l-254 868q-6 20 -6 43zM199 1442q0 63 45 107t106 44q63 0 107.5 -44t44.5 -107q0 -61 -44 -105.5t-108 -44.5q-61 0 -106 44.5t-45 105.5zM608 1442q0 63 44 107t108 44q61 0 105 -44t44 -107q0 -61 -44 -105.5t-105 -44.5q-63 0 -107.5 44.5t-44.5 105.5z" />
<glyph unicode="&#x152;" horiz-adv-x="1765" d="M137 412v772q0 172 122 293.5t292 121.5h104q78 0 150 -30q20 -8 41 4q35 20 74 20h559q61 0 105 -44t44 -105q0 -63 -44 -106.5t-105 -43.5h-398q-12 0 -12 -12v-324q0 -12 12 -12h324q61 0 105 -43t44 -106q0 -61 -44 -105.5t-105 -44.5h-324q-12 0 -12 -10v-324 q0 -12 12 -12h398q61 0 105 -44t44 -105.5t-44 -105.5t-105 -44h-559q-39 0 -74 21q-20 10 -41 2q-72 -29 -150 -29h-104q-170 0 -292 122t-122 294zM436 412q0 -47 34 -82t81 -35h104q47 0 81 35t34 82v772q0 47 -34 80.5t-81 33.5h-104q-47 0 -81 -33.5t-34 -80.5v-772z " />
<glyph unicode="&#x153;" horiz-adv-x="1648" d="M137 412v399q0 170 122 292t294 122h6q137 0 248 -82q18 -12 35 0q111 82 248 82h6q172 0 293.5 -122t121.5 -294v-199q0 -61 -44 -105t-105 -44h-363q-25 0 -24 -25v-24q0 -14 0 -9q2 -45 35.5 -75.5t79.5 -30.5h6q57 0 92 45q45 61 121 61q49 0 90 -30q59 -45 59 -121 q0 -49 -31 -90q-125 -164 -331 -164h-6q-137 0 -248 82q-16 12 -35 0q-111 -82 -248 -82h-6q-172 0 -294 122t-122 292zM438 412q0 -47 34 -81t81 -34h6q47 0 80 31.5t35 77.5q0 -4 0 6v397q0 12 0 8q-2 45 -35 77t-80 32h-6q-47 0 -81 -34t-34 -81v-399zM975 784 q0 -25 24 -24h207q6 0 6 6v43q0 49 -34.5 83t-81.5 34h-6q-45 0 -79 -31t-36 -76v-5v-3v-27z" />
<glyph unicode="&#x178;" d="M139 1442q0 94 84 135q31 14 66 14q92 0 133 -84l178 -360q6 -10 10 0l178 360q41 84 134 84q35 0 65 -14q84 -41 84 -135q0 -35 -14 -66l-299 -608q-2 -6 -2 -12v-606q0 -61 -44 -105.5t-106 -44.5q-63 0 -107 44t-44 106v606q0 6 -2 12l-299 608q-15 31 -15 66z M250 1817q0 61 44 105t107 44q61 0 105.5 -44t44.5 -105q0 -63 -44 -107.5t-106 -44.5q-63 0 -107 44.5t-44 107.5zM659 1817q0 61 44.5 105t105.5 44q63 0 107.5 -44t44.5 -105q0 -63 -44.5 -107.5t-107.5 -44.5q-61 0 -105.5 44.5t-44.5 107.5z" />
<glyph unicode="&#x2c6;" horiz-adv-x="970" d="M139 1219q0 57 37 100l197 223q45 49 112.5 49t112.5 -49l197 -223q37 -43 36 -100q0 -68 -51 -113q-41 -37 -98 -37q-68 0 -113 51l-75 88q-8 8 -17 0l-76 -88q-45 -51 -112 -51q-57 0 -99 37q-51 45 -51 113z" />
<glyph unicode="&#x2dc;" horiz-adv-x="1333" d="M139 700q0 41 19 76l32 55q98 172 295 172.5t295 -172.5l33 -57q12 -18 34.5 -18t35.5 20l32 58q43 74 129 73q41 0 76 -18q74 -43 74 -131q0 -39 -18 -74l-33 -57q-98 -172 -295 -172t-295 172l-33 57q-10 20 -35 21q-23 0 -34 -21l-33 -57q-43 -76 -129 -76 q-41 0 -76 20q-74 43 -74 129z" />
<glyph unicode="&#x2013;" horiz-adv-x="1048" d="M137 596q0 61 44 105t106 44h475q61 0 105 -44t44 -105t-44 -105.5t-105 -44.5h-475q-61 0 -105.5 44.5t-44.5 105.5z" />
<glyph unicode="&#x2014;" d="M150 596q0 61 44 105t105 44h612q61 0 105.5 -44t44.5 -105t-44 -105.5t-106 -44.5h-612q-61 0 -105 44.5t-44 105.5z" />
<glyph unicode="&#x2018;" horiz-adv-x="614" d="M137 1298v228q0 31 21.5 53.5t52.5 22.5q33 0 54.5 -23t21.5 -53v-47q0 -12 12 -11h8q70 0 120 -49t50 -121q0 -70 -50 -120t-119.5 -50t-120 50t-50.5 120z" />
<glyph unicode="&#x2019;" horiz-adv-x="614" d="M137 1430q0 72 50.5 122t120 50t119.5 -50.5t50 -121.5v-226q0 -33 -21.5 -54.5t-52.5 -21.5q-33 0 -54 21.5t-21 54.5v47q0 10 -13 11q-4 -2 -8 -2q-70 0 -120 50t-50 120z" />
<glyph unicode="&#x201a;" horiz-adv-x="751" d="M205 170q0 72 50 121t122 49q70 0 120 -49t50 -121v-225q0 -33 -22.5 -54.5t-53.5 -21.5t-53.5 21.5t-22.5 54.5v47q0 10 -10 10q-4 -2 -8 -2q-72 0 -122 50t-50 120z" />
<glyph unicode="&#x201c;" horiz-adv-x="1036" d="M137 1298v228q0 31 22.5 53.5t53.5 22.5t52.5 -23t21.5 -53v-47q0 -12 12 -11h8q72 0 121 -49t49 -121q0 -70 -49 -120t-121 -50q-70 0 -120 50t-50 120zM559 1298v228q0 31 21.5 53.5t52.5 22.5t53.5 -23t22.5 -53v-47q0 -12 10 -11h10q70 0 120 -49t50 -121 q0 -70 -50 -120t-120 -50q-72 0 -121 50t-49 120z" />
<glyph unicode="&#x201d;" horiz-adv-x="1036" d="M137 1430q0 72 50.5 122t119.5 50q72 0 121 -50.5t49 -121.5v-226q0 -33 -21.5 -54.5t-52 -21.5t-53 21.5t-22.5 54.5v47q0 10 -11 11q-6 -2 -10 -2q-70 0 -120 50t-50 120zM559 1430q0 72 49 122t121 50q70 0 120 -50.5t50 -121.5v-226q0 -33 -22.5 -54.5t-53 -21.5 t-52 21.5t-21.5 54.5v47q0 10 -13 11q-4 -2 -8 -2q-72 0 -121 50t-49 120z" />
<glyph unicode="&#x201e;" horiz-adv-x="1034" d="M137 170q0 70 49.5 120t120.5 50q70 0 120 -50t50 -120v-227q0 -31 -21.5 -52.5t-54.5 -21.5q-31 0 -52 21.5t-21 52.5v47q0 12 -13 10h-8q-72 0 -121 50t-49 120zM557 170q0 70 50 120t120 50q72 0 121 -50t49 -120v-227q0 -31 -21.5 -52.5t-52 -21.5t-53 21.5 t-22.5 52.5v47q0 12 -11 10h-10q-70 0 -120 50t-50 120z" />
<glyph unicode="&#x2022;" horiz-adv-x="1867" d="M137 796.5q0 329.5 233.5 562t563.5 232.5t563.5 -232.5t233.5 -562t-233.5 -563t-563.5 -233.5t-563.5 233.5t-233.5 563z" />
<glyph unicode="&#x2026;" horiz-adv-x="1452" d="M139 170q0 72 49.5 121t120.5 49q70 0 120 -49t50 -121q0 -70 -50 -120t-120 -50q-72 0 -121 50t-49 120zM555 170q0 72 50 121t122 49q70 0 120 -49t50 -121q0 -70 -50 -120t-120 -50q-72 0 -122 50t-50 120zM973 170q0 72 50 121t120 49q72 0 121 -49t49 -121 q0 -70 -49.5 -120t-120.5 -50q-70 0 -120 50t-50 120z" />
<glyph unicode="&#x2039;" horiz-adv-x="862" d="M137 582q0 45 27 82l285 436q45 68 124 67q45 0 84 -24q68 -45 68 -125q0 -45 -27 -84l-225 -342q-6 -10 0 -19l225 -344q27 -37 27 -82q0 -80 -68 -124q-39 -25 -84 -25q-80 0 -124 68l-285 434q-27 37 -27 82z" />
<glyph unicode="&#x203a;" horiz-adv-x="860" d="M137 147q0 45 25 82l225 344q6 8 0 19l-225 342q-25 39 -25 84q0 80 68 125q37 25 82 24q82 0 125 -67l286 -436q25 -37 25 -82t-25 -82l-286 -434q-43 -68 -125 -68q-45 0 -82 25q-68 44 -68 124z" />
<glyph unicode="&#x20ac;" horiz-adv-x="1423" d="M137 594q0 61 44 105t106 44h69q23 0 23 23v63q0 23 -23 23h-69q-61 0 -105.5 44t-44.5 105.5t44 105.5t106 44h69q23 0 23 23v10q0 172 122 293.5t294 121.5h102q119 0 221.5 -64.5t153.5 -172.5q14 -31 14 -64q0 -94 -86 -135q-31 -16 -63 -16q-94 0 -136 86 q-31 66 -104 65h-102q-49 0 -83 -33.5t-34 -80.5v-10q0 -23 22 -23h156q61 0 105.5 -44t44.5 -105.5t-44 -105.5t-106 -44h-156q-23 0 -22 -23v-63q0 -23 22 -23h64q63 0 107 -44t44 -105q0 -63 -44 -106.5t-107 -43.5h-64q-23 0 -22 -24v-8q0 -47 33.5 -82t83.5 -35h102 q72 0 104 65q41 84 136 84q33 0 65 -14q84 -41 84 -135q0 -35 -16 -66q-51 -106 -152.5 -169.5t-220.5 -63.5h-102q-172 0 -294 122t-122 294v8q0 25 -23 24h-69q-61 0 -105.5 43.5t-44.5 106.5z" />
<glyph unicode="&#x2122;" horiz-adv-x="907" d="M137 379q0 57 58 57h157q57 0 58 -57q0 -55 -58 -55h-10q-12 0 -12 -13v-256q0 -55 -56 -55q-57 0 -57 55v256q0 12 -10 13h-12q-58 0 -58 55zM444 55v324q0 43 41 53q10 3 20 3q26 0 44 -25l51 -80q2 -4 6 -4q6 2 6 4l54 80q17 26 43 25q9 0 20 -3q41 -10 41 -53v-324 q0 -55 -57 -55q-55 0 -56 55v123q0 10 -8 2q-16 -18 -43 -18q-25 0 -41 18q-8 8 -8 -2v-123q0 -55 -55 -55q-58 0 -58 55z" />
<glyph unicode="&#xe000;" horiz-adv-x="1220" d="M0 1220h1220v-1220h-1220v1220z" />
<glyph unicode="&#xfb01;" horiz-adv-x="1306" d="M137 152v1028q0 170 122 291.5t294 121.5h47q63 0 107.5 -44t44.5 -105.5t-44 -105.5t-108 -44h-47q-49 0 -83 -33.5t-34 -80.5v-9q0 -6 6 -6h158q63 0 107.5 -44t44.5 -105.5t-44 -105.5t-108 -44h-158q-6 0 -6 -6v-708q0 -61 -44 -105.5t-105.5 -44.5t-105.5 44.5 t-44 105.5zM829 1423q0 70 50.5 120t120 50t119.5 -50t50 -120q0 -72 -50 -121t-119.5 -49t-120 49t-50.5 121zM850 152v890q0 61 44 105.5t105.5 44.5t105.5 -44t44 -106v-890q0 -61 -44 -105.5t-105.5 -44.5t-105.5 44.5t-44 105.5z" />
<glyph unicode="&#xfb02;" horiz-adv-x="1429" d="M141 152v1028q0 170 122 291.5t292 121.5h49q63 0 106.5 -44t43.5 -105.5t-43 -105.5t-107 -44h-49q-47 0 -81 -33.5t-34 -80.5v-9q0 -6 6 -6h158q63 0 106.5 -44t43.5 -105.5t-43 -105.5t-107 -44h-158q-6 0 -6 -6v-708q0 -61 -44 -105.5t-105.5 -44.5t-105.5 44.5 t-44 105.5zM844 422v1022q0 61 44 105t105.5 44t105.5 -44t44 -105v-1022q0 -78 72.5 -139.5t72.5 -130.5q0 -43 -24 -82q-43 -68 -125 -68q-45 0 -82 25q-213 141 -213 395z" />
<glyph unicode="&#xfb03;" horiz-adv-x="2381" d="M139 150v1028q0 170 122 291.5t294 121.5h49q61 0 105.5 -44t44.5 -105.5t-44 -105.5t-106 -44h-49q-49 0 -83 -33.5t-34 -80.5v-9q0 -6 6 -6h160q61 0 105.5 -44t44.5 -105.5t-44 -105.5t-106 -44h-160q-6 0 -6 -6v-708q0 -61 -43 -105.5t-106 -44.5q-61 0 -105.5 44.5 t-44.5 105.5zM1032 150v1028q0 170 122 291.5t294 121.5h49q61 0 105.5 -44t44.5 -105.5t-44 -105.5t-106 -44h-49q-49 0 -83 -33.5t-34 -80.5v-9q0 -6 6 -6h160q61 0 105.5 -44t44.5 -105.5t-44 -105.5t-106 -44h-160q-6 0 -6 -6v-708q0 -61 -43 -105.5t-106 -44.5 q-61 0 -105.5 44.5t-44.5 105.5zM1913 1421q0 70 50 120t120 50q72 0 122 -50t50 -120q0 -72 -50.5 -121t-121.5 -49q-70 0 -120 49t-50 121zM1933 150v890q0 61 44 105.5t106 44.5q63 0 107 -44t44 -106v-890q0 -61 -44 -105.5t-107 -44.5q-61 0 -105.5 44.5t-44.5 105.5z " />
<glyph unicode="&#xfb04;" horiz-adv-x="2506" d="M139 150v1028q0 170 122 291.5t294 121.5h49q61 0 105.5 -44t44.5 -105.5t-44 -105.5t-106 -44h-49q-49 0 -83 -33.5t-34 -80.5v-9q0 -6 6 -6h160q61 0 105.5 -44t44.5 -105.5t-44 -105.5t-106 -44h-160q-6 0 -6 -6v-708q0 -61 -43 -105.5t-106 -44.5q-61 0 -105.5 44.5 t-44.5 105.5zM1032 150v1028q0 170 122 291.5t294 121.5h49q61 0 105.5 -44t44.5 -105.5t-44 -105.5t-106 -44h-49q-49 0 -83 -33.5t-34 -80.5v-9q0 -6 6 -6h160q61 0 105.5 -44t44.5 -105.5t-44 -105.5t-106 -44h-160q-6 0 -6 -6v-708q0 -61 -43 -105.5t-106 -44.5 q-61 0 -105.5 44.5t-44.5 105.5zM1923 420v1022q0 61 44 105t106 44q63 0 107 -44t44 -105v-1022q0 -78 73 -139.5t73 -130.5q0 -43 -25 -82q-45 -68 -125 -68q-45 0 -82 25q-215 141 -215 395z" />
</font>
</defs>
</svg>
